<?xml version="1.0" standalone="no"?>
<!DOCTYPE svg PUBLIC "-//W3C//DTD SVG 20010904//EN"
 "http://www.w3.org/TR/2001/REC-SVG-20010904/DTD/svg10.dtd">
<svg version="1.0" xmlns="http://www.w3.org/2000/svg"
 width="450.000000pt" height="300.000000pt" viewBox="0 0 450.000000 300.000000"
 preserveAspectRatio="xMidYMid meet">

<g transform="translate(0.000000,300.000000) scale(0.100000,-0.100000)"
fill="#000000" stroke="none">
<path d="M0 2699 c0 -236 3 -299 13 -291 9 8 12 1 12 -29 1 -45 -2 -48 -15
-16 -5 14 -9 -113 -9 -342 0 -271 3 -369 12 -380 10 -12 9 -13 -2 -7 -10 7
-12 3 -6 -14 4 -12 8 -30 9 -38 2 -9 8 -18 14 -20 7 -2 9 9 5 34 -4 27 -3 35
5 30 8 -4 12 0 12 11 0 10 14 42 30 72 37 66 39 78 5 28 -33 -48 -43 -48 -12
-1 12 20 27 36 32 36 6 0 21 9 34 21 22 20 21 17 -8 -35 -18 -31 -34 -67 -36
-80 -3 -12 -11 -26 -20 -30 -8 -5 -15 -17 -15 -26 0 -15 2 -15 10 -2 9 13 10
13 10 0 0 -8 9 3 19 25 11 22 20 34 20 27 1 -18 -29 -75 -36 -68 -3 3 -12 -6
-20 -21 -13 -26 -9 -123 6 -123 4 0 13 20 20 45 7 25 16 43 19 40 11 -10 12
-40 3 -66 -7 -19 -6 -26 2 -25 23 3 38 18 33 31 -2 7 2 21 10 32 14 17 15 17
10 -2 -14 -60 -17 -89 -7 -75 6 8 11 10 11 4 0 -6 7 -11 15 -11 11 0 14 7 9
21 -4 17 -3 18 5 6 6 -8 11 -26 12 -40 0 -23 1 -23 9 -5 6 13 7 2 3 -30 -5
-45 7 -60 14 -17 1 10 7 29 12 43 7 18 8 9 5 -36 -4 -66 1 -57 11 19 5 37 9
46 17 35 7 -10 8 -1 5 29 -3 27 -1 40 5 36 13 -8 4 -97 -11 -102 -6 -2 -11
-20 -11 -40 0 -27 3 -33 11 -25 9 9 16 6 30 -10 l18 -22 -4 33 c-2 18 -7 38
-11 45 -4 6 4 1 18 -13 13 -14 22 -29 20 -34 -3 -5 0 -6 6 -2 6 3 13 2 17 -4
11 -17 23 -2 18 23 -3 13 2 30 9 38 8 8 13 20 10 28 -3 8 0 11 6 7 6 -3 18 -3
27 0 14 6 13 8 -6 18 -12 6 -24 17 -27 25 -3 9 0 11 9 7 8 -4 4 1 -7 11 -13
11 -24 38 -29 64 -9 62 -35 130 -58 157 -11 12 -17 22 -13 22 3 0 -1 15 -11
33 -9 17 -16 35 -15 39 1 5 -3 7 -9 5 -6 -1 -16 6 -22 15 -9 14 -8 21 6 35 17
17 18 17 11 -2 -5 -15 -1 -13 15 7 12 15 20 32 17 36 -3 5 5 8 17 7 26 -2 46
21 47 53 0 21 4 23 39 19 22 -2 46 -9 54 -15 8 -7 36 -16 63 -21 51 -10 104
-27 104 -35 0 -2 -9 -2 -20 1 -14 4 -22 -1 -29 -18 -5 -13 -10 -20 -10 -15 -1
5 -10 1 -20 -8 -18 -17 -20 -16 -26 3 -8 26 -22 27 -28 4 -2 -10 -4 -3 -4 15
0 42 -11 52 -62 59 -33 5 -41 3 -41 -11 0 -9 5 -16 10 -16 6 0 10 -5 10 -11 0
-6 -7 -9 -15 -5 -8 3 -15 1 -15 -4 0 -6 5 -10 11 -10 6 0 8 -9 4 -22 -5 -21
-5 -21 9 2 14 23 15 20 11 -45 -3 -38 -2 -63 1 -55 3 8 12 34 20 57 12 34 18
40 28 30 19 -19 26 -45 14 -49 -7 -3 -13 -41 -16 -99 -4 -90 7 -121 14 -42 3
21 6 47 8 58 3 11 5 28 5 38 2 38 18 14 20 -29 2 -53 8 -67 24 -57 7 4 6 0 -2
-10 -10 -13 -10 -17 -1 -17 10 0 10 -4 -1 -16 -10 -13 -10 -17 2 -25 8 -5 17
-9 22 -9 7 0 11 31 8 58 -1 6 3 20 8 30 11 18 11 19 14 -33 2 -23 19 -33 26
-14 2 7 -1 9 -10 4 -10 -7 19 42 39 65 2 3 1 -15 -3 -40 -3 -25 -8 -61 -10
-80 l-4 -35 13 40 14 40 2 -40 2 -40 14 45 14 45 -6 -40 c-14 -98 -14 -100 1
-55 l15 45 -6 -38 c-3 -26 -2 -37 5 -32 6 3 11 21 11 38 0 25 3 29 11 17 8
-11 9 -8 5 15 -3 17 -2 37 4 45 7 11 10 5 10 -25 0 -27 3 -36 9 -26 5 8 7 21
4 30 -3 11 -1 10 7 -2 7 -11 10 -30 7 -43 -4 -25 7 -34 16 -11 3 6 6 1 6 -12
1 -23 2 -24 14 -7 12 16 14 10 16 -50 3 -86 11 -98 11 -16 0 33 5 64 11 67 6
4 8 20 4 38 -4 23 -3 28 4 17 5 -8 9 -30 9 -51 0 -20 4 -47 8 -60 8 -21 10
-17 15 26 l6 50 1 -52 c1 -28 6 -54 11 -57 5 -3 7 16 6 44 -3 30 0 48 6 45 5
-4 9 1 9 10 0 9 -4 14 -8 11 -4 -2 -8 4 -9 14 -1 11 2 22 7 25 4 3 13 -28 20
-67 16 -105 20 -105 14 -4 -6 85 -5 89 12 75 16 -13 17 -11 10 24 -4 21 -10
45 -13 53 -3 8 -1 14 5 14 5 0 13 -10 17 -22 6 -20 8 -20 12 -5 2 9 9 17 14
17 11 0 3 281 -8 289 -12 9 -15 34 -4 27 5 -4 11 2 13 11 2 10 7 -24 11 -75 5
-52 12 -101 18 -110 5 -9 19 -55 29 -102 11 -47 17 -65 14 -40 -9 70 -19 228
-19 302 0 86 19 90 22 5 1 -34 4 -71 7 -82 2 -11 5 -36 6 -55 1 -29 3 -32 10
-15 8 19 9 18 9 -4 1 -13 3 -22 6 -19 3 3 0 77 -6 164 -7 88 -13 170 -14 184
-1 14 -7 35 -14 48 -11 21 -11 22 7 11 12 -7 19 -21 17 -31 -2 -11 5 -61 16
-111 11 -51 25 -116 31 -145 6 -29 13 -50 15 -48 3 2 0 28 -6 58 -15 81 -19
125 -11 137 10 18 31 -63 37 -146 6 -78 23 -111 23 -46 1 36 2 37 15 19 17
-22 20 -15 6 12 -11 19 -30 111 -40 188 -4 29 -13 60 -21 70 -13 15 -13 17 -1
13 8 -3 19 -18 24 -35 6 -16 13 -31 18 -34 7 -5 60 -155 72 -205 l5 -20 1 20
c0 11 -4 38 -9 60 -13 58 -5 54 25 -14 19 -41 31 -58 41 -54 8 3 14 10 14 15
0 6 -7 7 -16 4 -14 -5 -15 -4 -5 8 9 11 9 25 1 54 -5 22 -8 46 -5 54 3 8 -3
36 -15 62 -11 26 -20 55 -19 64 1 26 39 -65 59 -143 21 -80 41 -137 46 -133 5
6 -44 202 -61 246 -9 23 -15 47 -12 54 3 7 6 4 6 -7 1 -11 7 -30 15 -41 8 -11
29 -68 47 -128 26 -86 35 -103 41 -86 5 14 1 54 -12 108 -12 48 -23 96 -26
107 -2 11 14 -17 37 -63 22 -46 43 -81 46 -79 2 3 -10 33 -27 67 -17 34 -29
64 -26 67 3 3 8 -2 12 -11 3 -9 10 -13 15 -10 5 3 6 -2 3 -10 -3 -9 8 -36 25
-61 52 -78 63 -103 51 -124 -8 -17 -5 -22 22 -35 17 -9 32 -16 34 -16 1 0 -11
27 -27 60 -16 33 -29 65 -29 71 0 5 -7 24 -16 41 -17 32 -64 159 -63 168 0 3
19 -33 43 -80 24 -47 41 -91 38 -99 -3 -9 -1 -12 6 -7 7 4 21 -9 36 -31 46
-69 56 -79 65 -65 7 11 9 10 14 -3 5 -11 3 -14 -6 -9 -6 4 -4 -2 7 -14 10 -12
23 -19 27 -16 5 3 9 1 9 -4 0 -6 8 -13 17 -16 15 -6 14 -3 -3 16 -26 30 -43
71 -49 119 l-5 39 21 -21 c15 -15 18 -24 9 -34 -9 -10 -6 -15 9 -20 12 -3 21
-11 21 -16 0 -5 7 -9 15 -9 9 0 18 -7 21 -15 4 -8 11 -15 17 -15 5 0 3 8 -6
18 -10 10 -17 22 -17 26 0 4 -9 21 -21 38 -12 16 -18 32 -15 35 3 3 0 13 -7
22 -11 14 -10 14 5 2 10 -7 15 -17 12 -22 -3 -5 2 -16 10 -25 9 -8 16 -12 16
-8 0 4 9 -2 20 -14 12 -12 25 -22 30 -22 11 0 6 31 -9 59 -16 29 -13 38 4 15
14 -19 14 -19 14 1 0 25 -33 66 -50 63 -13 -3 -30 26 -44 71 -12 41 11 15 25
-29 9 -26 16 -36 21 -28 4 7 2 19 -4 28 -11 13 -10 13 7 0 10 -8 22 -25 27
-38 5 -14 14 -20 21 -16 6 4 8 3 5 -2 -3 -6 -2 -16 4 -24 7 -13 9 -13 9 0 1
10 4 9 13 -6 17 -29 54 -74 61 -74 3 0 -8 21 -24 47 -34 53 -36 60 -16 60 8 0
12 -6 9 -14 -3 -7 0 -13 6 -13 6 0 24 -21 41 -47 16 -27 30 -42 30 -34 0 11 4
9 15 -5 13 -17 14 -16 3 16 -6 19 -14 40 -18 45 -9 14 -20 45 -16 45 3 0 14
-16 26 -35 12 -19 25 -33 30 -30 4 3 18 -4 31 -14 13 -10 30 -16 37 -13 8 2
22 -5 33 -17 11 -12 22 -21 24 -21 7 0 -26 55 -60 100 -45 58 -66 96 -63 112
2 7 -2 12 -8 11 -7 -1 -22 18 -35 42 -13 25 -27 45 -31 45 -11 0 -10 -8 2 -29
6 -13 5 -24 -5 -37 -13 -18 -14 -16 -15 19 0 21 -5 48 -11 59 -10 18 -9 20 5
15 12 -5 16 0 17 21 0 24 1 25 9 7 5 -11 9 -16 9 -11 1 5 8 3 16 -4 19 -15 20
-36 2 -24 -7 5 -5 2 5 -8 13 -12 15 -18 6 -21 -10 -4 -10 -6 -1 -6 7 -1 10 -8
6 -18 -4 -9 -2 -14 3 -11 10 7 38 -11 45 -27 2 -5 8 -9 12 -7 5 1 6 -2 2 -8
-3 -6 0 -16 7 -24 7 -7 31 -33 54 -57 22 -24 49 -51 60 -58 10 -8 -1 6 -26 32
-24 26 -41 47 -36 47 4 0 -4 14 -18 31 -30 36 -33 49 -8 44 9 -2 20 -4 25 -4
4 -1 7 -6 7 -12 0 -8 -6 -7 -17 2 -11 8 -10 5 2 -7 11 -11 34 -26 50 -33 l30
-13 -29 31 c-17 17 -26 31 -21 31 4 0 0 9 -10 20 -10 11 -16 22 -13 25 2 3 40
-31 82 -75 43 -44 80 -80 83 -80 9 0 -58 89 -80 107 -13 10 -30 30 -37 43
l-13 25 27 -24 c14 -14 36 -26 47 -28 21 -3 21 -2 5 22 -24 36 -2 31 24 -6 12
-16 25 -28 28 -25 8 8 42 -24 42 -39 0 -7 11 -20 25 -29 15 -10 25 -12 25 -6
0 6 5 8 12 4 7 -4 2 7 -10 24 -13 17 -28 35 -35 38 -7 4 -3 -2 7 -14 11 -12
17 -25 13 -28 -3 -3 -35 31 -70 76 -88 111 -134 175 -117 165 10 -6 12 -3 6
16 -15 51 -18 92 -6 84 6 -4 9 -9 7 -12 -3 -2 5 -14 17 -27 42 -45 103 -112
155 -173 30 -35 57 -60 62 -57 5 3 6 -1 3 -9 -3 -8 2 -19 10 -26 13 -11 15
-10 11 8 -2 11 1 23 6 27 5 3 9 2 8 -3 -4 -21 3 -33 21 -43 19 -10 20 -10 8 9
-7 12 -16 21 -21 21 -4 0 -6 4 -3 9 3 5 -13 28 -35 52 -23 24 -35 35 -28 24
14 -20 13 -20 -9 -1 -23 20 -30 32 -12 21 6 -3 10 -2 10 4 0 11 -19 25 -35 26
-5 1 -9 5 -8 11 1 6 -25 44 -58 85 -62 78 -77 109 -32 68 14 -13 23 -18 18
-10 -5 10 -4 12 4 7 6 -4 9 -11 6 -16 -3 -5 42 -50 100 -100 71 -62 105 -98
106 -113 0 -12 3 -16 6 -10 7 18 30 -7 39 -41 3 -14 12 -26 20 -26 12 0 19 43
17 108 -1 6 3 12 8 12 4 0 10 -21 12 -47 3 -42 4 -40 6 17 1 37 8 76 17 90 15
24 15 24 10 -16 -4 -29 -2 -45 8 -53 11 -9 15 2 20 66 12 143 13 138 -6 137
-10 -1 -16 2 -13 6 3 5 -15 19 -38 33 -32 17 -53 23 -78 19 -32 -5 -32 -6 -9
-12 l25 -6 -23 -13 c-20 -11 -37 -9 -105 9 -45 12 -93 22 -106 22 -17 0 -19 3
-10 9 12 8 12 11 -1 18 -21 14 -32 3 -20 -20 11 -19 22 -23 49 -20 8 2 10 -2
5 -10 -4 -8 -3 -10 5 -5 11 7 132 -18 161 -34 30 -17 -14 -21 -53 -5 -58 24
-58 16 0 -10 39 -18 53 -29 53 -44 0 -27 -3 -27 -70 14 -58 35 -76 42 -66 26
3 -5 30 -21 61 -35 34 -17 55 -34 55 -44 0 -15 2 -15 10 -2 9 13 10 13 10 0
-1 -8 -6 -23 -13 -32 -12 -15 -19 -10 -70 42 -31 33 -69 67 -84 76 -16 10 -39
29 -51 43 -21 23 -23 24 -13 4 12 -24 3 -31 -16 -12 -23 23 -34 -2 -13 -31 27
-39 28 -73 0 -38 -11 14 -24 37 -29 52 -7 17 -15 24 -26 20 -8 -3 -13 -10 -10
-14 9 -15 -6 -39 -21 -33 -10 3 -11 10 -4 23 9 16 7 16 -25 1 -34 -16 -35 -17
-33 -74 1 -32 5 -60 10 -63 4 -3 5 -10 1 -17 -8 -14 -21 18 -22 56 -1 18 -5
26 -12 22 -6 -5 -9 -27 -5 -59 l5 -51 -10 43 c-6 26 -14 40 -21 36 -7 -5 -8
-2 -4 5 5 7 1 20 -7 29 -8 9 -17 26 -20 37 -4 16 -5 14 -6 -7 -1 -25 -24 -58
-40 -58 -5 0 -6 -11 -3 -25 2 -15 0 -25 -7 -25 -7 0 -9 5 -6 10 3 6 2 10 -3
10 -6 0 -13 -11 -16 -25 -4 -14 -11 -25 -16 -25 -5 0 -7 7 -3 16 5 14 3 15
-17 4 -19 -10 -25 -9 -39 6 -11 13 -12 15 -1 7 10 -7 23 -8 40 -1 24 10 24 11
5 18 -19 7 -18 8 5 12 21 5 20 5 -7 7 -18 0 -33 -3 -33 -8 0 -5 -10 -7 -22 -3
-16 4 -19 2 -13 -8 5 -9 4 -11 -3 -6 -17 10 -94 -13 -89 -27 4 -14 28 -16 75
-6 40 9 48 -2 27 -38 -9 -16 -14 -20 -11 -11 3 11 -2 19 -14 23 -25 8 -48 -4
-29 -16 7 -4 10 -11 6 -16 -5 -4 -16 3 -26 16 l-18 24 -6 -22 c-3 -14 0 -24 8
-27 18 -7 27 -32 14 -39 -5 -4 -8 -1 -7 7 2 7 -3 12 -10 10 -8 -1 -11 2 -7 8
4 6 1 9 -6 8 -7 -2 -13 2 -14 9 0 7 -6 18 -12 24 -7 7 -13 17 -13 22 0 5 9 -1
21 -14 l20 -24 -6 30 c-4 17 -11 32 -16 33 -6 2 -4 11 3 20 10 12 10 14 1 8
-9 -5 -11 -2 -6 10 6 16 7 15 20 -1 7 -10 16 -16 19 -12 11 11 -17 37 -40 37
-22 0 -48 31 -53 65 -15 106 -6 211 13 161 3 -9 10 -13 15 -10 5 3 9 0 9 -5 0
-6 -4 -11 -10 -11 -5 0 -10 -16 -10 -36 0 -21 4 -33 10 -29 6 3 10 -1 10 -10
0 -13 2 -14 14 -3 8 7 10 15 5 16 -5 2 -6 8 -3 14 4 6 6 41 6 77 -2 71 4 101
18 101 11 0 7 -80 -5 -100 -8 -13 -7 -13 10 0 17 14 18 13 11 -24 -6 -29 -4
-37 6 -34 7 3 12 16 10 31 -2 14 4 37 13 50 13 20 13 26 3 30 -9 4 -7 6 5 7 9
2 23 3 30 4 6 1 15 -2 18 -7 4 -6 10 4 14 22 3 17 11 31 16 31 6 0 7 5 4 10
-3 6 -1 10 6 10 8 0 10 -11 6 -35 -3 -19 -2 -35 2 -35 5 0 6 -11 3 -25 -2 -14
0 -25 6 -25 5 0 13 -17 17 -37 4 -24 9 -32 15 -24 6 11 9 11 13 0 3 -8 6 3 6
23 1 20 6 40 11 43 6 4 8 11 5 16 -4 5 -2 9 4 9 5 0 13 -5 16 -10 7 -12 -14
-110 -27 -125 -4 -5 -8 -25 -7 -45 0 -27 5 -16 22 48 14 57 25 81 34 78 7 -3
15 -1 18 4 4 6 -1 10 -9 10 -9 0 -16 7 -16 15 0 18 16 20 23 3 3 -7 6 0 6 15
1 18 -3 26 -10 21 -8 -4 -9 1 -4 17 10 33 28 62 20 32 -4 -13 -3 -23 2 -23 4
0 6 -21 4 -46 -3 -41 -1 -45 12 -33 8 8 13 18 10 22 -2 4 -2 26 2 49 l7 41 52
-6 c130 -14 438 -133 562 -217 80 -54 214 -171 240 -209 28 -41 33 -71 9 -51
-8 7 -13 16 -10 20 6 10 -14 25 -22 16 -3 -3 2 -17 11 -31 16 -24 16 -26 -6
-34 -48 -17 -52 -21 -19 -15 31 6 33 5 20 -8 -8 -9 -24 -18 -36 -22 -12 -4
-27 -14 -35 -23 -9 -12 -10 -15 0 -9 7 4 24 10 39 12 14 3 39 12 54 20 27 13
33 12 30 -9 0 -4 5 -6 11 -5 10 2 12 -11 10 -49 -2 -31 1 -54 8 -58 9 -5 10
-1 5 14 -4 13 -1 27 9 37 24 23 34 9 30 -41 -3 -28 0 -44 5 -41 5 4 13 1 17
-5 4 -7 3 -9 -3 -6 -6 4 -14 0 -17 -9 -8 -22 -8 -24 5 -24 7 0 18 -8 25 -17
12 -17 13 -16 9 4 -2 13 1 25 6 28 5 4 7 10 5 14 -3 4 11 13 30 20 28 10 42
10 65 1 16 -7 29 -17 29 -22 0 -5 4 -6 10 -3 5 3 10 38 10 77 0 39 -3 69 -6
66 -3 -4 -22 5 -41 18 -43 29 -44 29 -73 4 -13 -11 -24 -19 -25 -18 -1 2 -11
22 -22 44 -19 37 -19 41 -5 40 19 -1 20 4 21 221 l1 153 27 -12 c16 -7 43 -28
61 -46 30 -33 35 -34 78 -28 26 3 60 6 75 6 27 0 29 3 29 40 0 54 34 90 85 90
29 0 43 8 78 46 42 44 47 46 108 51 59 5 67 3 96 -21 33 -28 48 -66 38 -97 -8
-23 -54 -49 -88 -49 -26 0 -69 -37 -72 -61 -3 -19 189 -19 223 0 13 7 35 10
48 7 27 -7 68 -43 77 -69 4 -10 11 -16 17 -12 5 3 28 -4 50 -15 30 -15 45 -18
58 -11 9 6 14 11 10 11 -5 0 1 9 12 20 41 41 16 72 -36 45 -32 -17 -81 -19
-103 -6 -9 6 -15 29 -16 62 0 29 -5 54 -10 56 -6 2 -25 12 -42 23 -46 28 -46
79 1 141 32 42 65 133 53 145 -3 4 -18 3 -32 0 -19 -5 -26 -13 -25 -29 4 -49
-1 -69 -25 -92 -20 -21 -34 -25 -83 -25 -73 0 -93 18 -125 116 -17 55 -26 69
-42 69 -18 0 -21 -8 -25 -70 -4 -43 -13 -83 -25 -103 -50 -84 -157 -32 -141
69 8 48 0 66 -33 83 -38 20 -52 11 -35 -22 20 -39 17 -99 -8 -143 -12 -22 -25
-39 -30 -39 -4 0 -8 -26 -8 -58 0 -44 -5 -63 -17 -74 -28 -25 -61 -30 -99 -18
-29 10 -40 22 -57 59 -12 25 -20 50 -18 55 1 5 -4 4 -12 -2 -11 -10 -14 -7
-12 16 1 15 -2 39 -6 53 -9 33 6 62 16 30 3 -11 10 -21 15 -21 19 0 69 72 75
107 15 96 19 92 -57 68 l-48 -14 0 29 0 30 -116 0 -115 0 19 -27 c40 -58 71
-133 53 -133 -5 0 -29 36 -53 80 -35 65 -47 80 -67 80 -20 0 -22 -2 -11 -15
17 -21 1 -38 -31 -33 -16 2 -23 9 -22 21 1 14 -4 17 -18 14 -10 -3 -17 -1 -13
4 3 5 -35 9 -88 9 l-93 0 55 -37 c179 -119 343 -293 396 -419 26 -62 -1 -35
-33 34 -34 72 -104 156 -141 167 -19 5 -23 2 -28 -24 -4 -17 -6 -34 -6 -38 0
-4 29 -21 64 -37 48 -24 64 -37 66 -55 2 -13 -1 -28 -7 -34 -7 -7 -7 -16 0
-29 16 -29 6 -31 -40 -7 -49 25 -60 39 -31 39 12 0 19 4 15 10 -3 5 -15 6 -28
1 -24 -9 -107 14 -107 31 0 5 -4 6 -10 3 -5 -3 -7 0 -5 7 4 10 -4 14 -26 16
-65 5 -62 20 4 17 36 -2 70 -6 76 -10 15 -9 14 14 -1 28 -17 15 -92 19 -151 8
-37 -7 -58 -4 -113 15 -36 13 -73 29 -80 35 -7 6 -17 8 -22 5 -14 -9 -77 12
-102 34 -13 11 -29 20 -37 20 -10 0 -12 6 -8 21 5 15 4 19 -5 14 -12 -7 -76
52 -67 62 4 3 73 -45 171 -120 36 -28 46 -32 46 -18 0 7 -7 14 -16 18 -20 8
-69 52 -69 63 0 5 -4 12 -9 17 -5 5 -6 2 -1 -7 7 -13 6 -13 -6 0 -8 8 -21 20
-29 28 -8 7 -9 11 -2 7 7 -4 12 0 12 9 0 13 5 13 33 -3 25 -14 38 -16 52 -9
13 8 16 7 10 -1 -4 -7 -17 -16 -29 -21 -12 -5 -15 -9 -6 -9 8 0 21 3 29 8 9 6
21 3 34 -10 11 -10 22 -17 24 -15 6 5 -48 61 -56 59 -4 -1 -18 7 -31 18 l-25
19 29 -10 c16 -6 31 -8 34 -5 3 2 10 -3 17 -11 16 -22 77 -10 68 13 -5 12 1
14 33 9 21 -3 49 -5 62 -6 13 0 21 -3 19 -7 -3 -5 25 -30 62 -56 l66 -48 -57
55 c-42 42 -51 56 -37 56 10 0 19 -4 19 -8 0 -10 36 -29 90 -48 l35 -13 -39
34 c-66 59 -183 135 -206 135 -22 0 -22 -1 4 -21 40 -31 24 -35 -21 -5 -35 24
-93 36 -93 18 0 -4 12 -15 28 -24 21 -14 23 -18 9 -18 -10 0 -33 11 -51 25
-31 23 -40 25 -151 24 -85 0 -115 -3 -105 -11 11 -7 10 -8 -5 -2 -11 4 -64 9
-117 11 -87 2 -98 1 -98 -15 -1 -16 -1 -16 -14 0 -10 14 -31 17 -134 16 -111
-1 -121 -2 -110 -17 11 -14 10 -14 -7 1 -18 15 -56 17 -354 17 -286 1 -332 -1
-322 -13 7 -8 8 -17 4 -19 -12 -7 -36 8 -31 19 2 5 -179 10 -419 11 l-423 3 0
-301z m340 287 c0 -3 -4 -8 -10 -11 -5 -3 -10 -1 -10 4 0 6 5 11 10 11 6 0 10
-2 10 -4z m1578 -37 c-2 -5 -12 -3 -23 5 -17 13 -18 17 -5 25 16 11 35 -10 28
-30z m171 24 c-2 -29 0 -43 9 -42 17 3 32 -2 32 -10 0 -14 -34 -8 -47 9 -11
13 -12 12 -13 -4 0 -11 -3 -17 -6 -13 -6 6 14 77 22 77 3 0 4 -8 3 -17z m41 7
c0 -5 -2 -10 -4 -10 -3 0 -8 5 -11 10 -3 6 -1 10 4 10 6 0 11 -4 11 -10z
m-280 -9 c0 -5 -7 -11 -14 -14 -10 -4 -13 -1 -9 9 6 15 23 19 23 5z m424 -7
c8 -21 9 -21 -16 -20 -14 1 -22 -4 -20 -12 1 -8 -2 -11 -7 -8 -5 3 -14 -1 -21
-9 -7 -8 -17 -15 -23 -15 -6 0 1 13 16 28 15 16 24 32 20 37 -5 4 -3 5 4 1 6
-3 14 -2 18 4 9 15 22 12 29 -6z m-507 -19 c-11 -7 -13 -16 -6 -26 5 -8 9 -9
9 -4 0 13 20 -17 20 -31 0 -16 -28 -13 -34 3 -3 8 -10 12 -15 8 -16 -9 -3 39
14 51 8 6 11 15 7 19 -4 5 -1 5 7 0 12 -7 12 -10 -2 -20z m408 -4 c-6 -5 -25
10 -25 20 0 5 6 4 14 -3 8 -7 12 -15 11 -17z m-225 -2 c0 -5 -4 -9 -10 -9 -5
0 -10 7 -10 16 0 8 5 12 10 9 6 -3 10 -10 10 -16z m-1633 -11 c-3 -8 -6 -5 -6
6 -1 11 2 17 5 13 3 -3 4 -12 1 -19z m1237 13 c-2 -2 2 -11 9 -19 11 -14 1 -9
-51 24 -2 1 8 1 22 0 13 0 22 -3 20 -5z m-1307 -7 c-3 -3 -12 -4 -19 -1 -8 3
-5 6 6 6 11 1 17 -2 13 -5z m718 -14 c3 -6 -1 -7 -9 -4 -18 7 -21 14 -7 14 6
0 13 -4 16 -10z m930 -12 c14 -45 14 -50 1 -39 -7 6 -15 9 -17 7 -2 -2 -4 9
-4 25 0 35 10 38 20 7z m-738 6 c-3 -3 -12 -4 -19 -1 -8 3 -5 6 6 6 11 1 17
-2 13 -5z m838 -12 c-3 -3 -11 0 -18 7 -9 10 -8 11 6 5 10 -3 15 -9 12 -12z
m-795 -14 c0 -11 -12 -10 -30 2 -12 7 -10 9 8 7 12 0 22 -5 22 -9z m960 2 c0
-5 -7 -10 -15 -10 -8 0 -15 5 -15 10 0 6 7 10 15 10 8 0 15 -4 15 -10z m-1392
-18 c2 -7 -2 -10 -12 -6 -9 3 -16 11 -16 16 0 13 23 5 28 -10z m738 -10 c-9
-9 -37 8 -31 18 5 8 11 7 21 -1 8 -6 12 -14 10 -17z m-278 -13 c-3 -8 -7 -3
-11 10 -4 17 -3 21 5 13 5 -5 8 -16 6 -23z m898 -54 c36 -33 42 -42 24 -36
-14 5 -24 14 -22 20 2 9 -3 9 -18 1 -17 -9 -19 -8 -13 7 6 16 5 16 -9 5 -14
-11 -18 -10 -28 8 -6 11 -8 26 -5 33 4 6 -1 3 -9 -7 -9 -11 -16 -15 -16 -9 0
6 -3 18 -6 27 -11 28 48 0 102 -49z m-1846 18 c-11 -17 -11 -17 -6 0 3 10 6
24 7 30 0 9 2 9 5 0 3 -7 0 -20 -6 -30z m1650 17 c0 -5 -2 -10 -4 -10 -3 0 -8
5 -11 10 -3 6 -1 10 4 10 6 0 11 -4 11 -10z m35 0 c3 -5 1 -10 -4 -10 -6 0
-11 5 -11 10 0 6 2 10 4 10 3 0 8 -4 11 -10z m-435 -9 c0 -5 -7 -12 -16 -15
-8 -3 -13 -2 -9 3 3 5 -1 12 -7 14 -7 3 -3 6 10 6 12 1 22 -3 22 -8z m-995
-11 c3 -6 -1 -7 -9 -4 -18 7 -21 14 -7 14 6 0 13 -4 16 -10z m1054 -12 c5 -13
11 -34 15 -48 l7 -25 -15 25 -15 25 -2 -30 c-1 -16 -2 -35 -2 -41 0 -6 -6 -11
-13 -11 -8 0 -10 7 -5 21 17 46 22 78 11 71 -6 -4 -15 -16 -19 -28 -4 -11 -10
-16 -14 -11 -6 10 27 74 38 74 3 0 9 -10 14 -22z m-739 -30 c0 -5 -11 -1 -25
8 -14 9 -25 18 -25 20 0 2 11 -2 25 -8 14 -6 25 -15 25 -20z m680 13 c-10 -20
-4 -51 10 -51 5 0 2 -14 -7 -31 -12 -25 -13 -33 -3 -42 9 -9 11 -9 7 -1 -4 7
-1 14 6 17 8 3 12 -8 12 -34 1 -45 -2 -48 -15 -16 -8 21 -9 21 -9 1 -1 -11 8
-29 19 -39 15 -14 20 -30 19 -69 0 -40 -2 -47 -10 -31 -7 16 -8 13 -6 -14 4
-30 2 -32 -9 -16 -8 11 -10 24 -5 34 14 27 23 73 13 67 -5 -3 -23 29 -41 72
-17 42 -26 79 -21 80 6 2 10 10 10 18 0 9 5 12 10 9 6 -3 10 -1 10 4 0 14 -13
14 -28 -1 -6 -6 -15 -8 -19 -4 -5 4 1 14 12 23 11 8 19 19 17 24 -1 6 2 8 7 5
5 -4 12 -2 16 4 11 18 16 10 5 -9z m197 3 c-3 -3 -12 -4 -19 -1 -8 3 -5 6 6 6
11 1 17 -2 13 -5z m63 -8 c0 -3 -4 -8 -10 -11 -5 -3 -10 -1 -10 4 0 6 5 11 10
11 6 0 10 -2 10 -4z m-817 -30 c4 -10 1 -13 -9 -9 -15 6 -19 23 -5 23 5 0 11
-7 14 -14z m692 5 c3 -5 1 -12 -5 -16 -5 -3 -10 1 -10 9 0 18 6 21 15 7z
m-495 -11 c0 -5 -5 -10 -11 -10 -5 0 -7 5 -4 10 3 6 8 10 11 10 2 0 4 -4 4
-10z m690 0 c0 8 6 4 13 -10 9 -17 10 -27 3 -32 -7 -5 -7 -8 2 -8 6 0 12 -5
12 -11 0 -5 -5 -7 -12 -3 -6 4 -8 3 -4 -4 3 -6 1 -23 -5 -38 -8 -22 -12 -25
-19 -14 -5 8 -6 26 -3 41 3 15 1 29 -5 33 -5 3 -7 17 -4 32 3 19 7 22 13 12 7
-10 9 -10 9 2z m87 -4 c-3 -8 -9 -31 -13 -50 -6 -37 -24 -40 -24 -5 0 11 5 17
10 14 9 -5 15 23 11 48 0 4 4 7 10 7 6 0 9 -6 6 -14z m-1696 -42 c-7 -31 -9
-34 -10 -12 -1 27 9 62 15 55 3 -2 0 -22 -5 -43z m1459 21 c0 -8 -2 -15 -4
-15 -2 0 -6 7 -10 15 -3 8 -1 15 4 15 6 0 10 -7 10 -15z m-69 -12 c-5 -10 -9
-22 -9 -28 -1 -20 -22 -16 -22 5 0 12 4 19 9 16 5 -3 11 1 15 9 3 8 8 15 11
15 3 0 1 -8 -4 -17z m-740 -20 c13 -16 12 -17 -3 -4 -10 7 -18 15 -18 17 0 8
8 3 21 -13z m790 -16 c-10 -9 -11 -8 -5 6 3 10 9 15 12 12 3 -3 0 -11 -7 -18z
m-676 -27 c10 -11 16 -20 13 -20 -3 0 -13 9 -23 20 -10 11 -16 20 -13 20 3 0
13 -9 23 -20z m-775 -4 c0 -8 -4 -17 -9 -20 -4 -3 -11 -29 -14 -58 -3 -29 -13
-73 -21 -98 l-16 -45 4 68 c2 37 8 73 14 80 6 6 13 29 17 50 7 36 25 52 25 23z
m1384 -2 c3 -8 2 -12 -4 -9 -6 3 -10 10 -10 16 0 14 7 11 14 -7z m-1187 -29
c0 -8 -4 -15 -9 -15 -10 0 -11 14 -1 23 9 10 10 9 10 -8z m-337 1 c0 -2 -9 -6
-20 -9 -11 -3 -18 -1 -14 4 5 9 34 13 34 5z m967 -26 c3 -24 3 -24 -11 -5 -18
24 -20 38 -4 33 6 -2 13 -15 15 -28z m336 24 c8 -3 36 -32 62 -64 26 -33 52
-57 58 -53 6 3 7 1 3 -5 -3 -5 4 -23 17 -39 34 -40 41 -73 16 -73 -10 0 -19
-4 -19 -9 0 -15 18 -23 25 -11 11 18 47 -9 43 -34 -2 -15 10 -36 35 -62 22
-23 37 -49 37 -64 0 -23 -2 -22 -26 13 -29 44 -45 44 -19 0 l17 -28 -21 25
c-11 14 -19 30 -17 36 6 17 -27 62 -42 57 -10 -4 -10 -8 -1 -19 17 -21 6 -17
-22 7 -14 12 -25 16 -27 9 -3 -8 -8 -8 -18 1 -15 12 -20 34 -5 25 5 -3 14 0
20 8 9 11 6 13 -16 10 -16 -2 -22 -1 -15 2 10 5 10 8 -2 18 -17 13 -78 171
-69 180 4 3 -1 14 -9 23 -15 18 -31 53 -24 53 3 0 11 -3 19 -6z m-1340 -45
c-7 -25 -10 -24 -15 5 -3 16 -1 23 7 19 7 -2 11 -13 8 -24z m508 -22 c-10 -9
-11 -8 -5 6 3 10 9 15 12 12 3 -3 0 -11 -7 -18z m643 -3 c3 -8 2 -12 -4 -9 -6
3 -10 10 -10 16 0 14 7 11 14 -7z m158 -109 c25 -50 43 -105 34 -105 -6 0 -26
44 -56 125 -13 33 -27 65 -32 71 -4 6 -5 14 -1 18 4 4 13 -8 19 -26 6 -19 23
-56 36 -83z m1128 80 c-7 -9 -15 -13 -18 -10 -3 2 1 11 8 20 7 9 15 13 18 10
3 -2 -1 -11 -8 -20z m377 -12 c-3 -10 -5 -4 -5 12 0 17 2 24 5 18 2 -7 2 -21
0 -30z m-1463 -58 c19 -37 33 -72 30 -77 -3 -4 -1 -8 4 -8 7 0 32 -42 32 -54
0 -2 -7 -7 -16 -10 -8 -3 -12 -2 -9 4 3 6 2 10 -3 10 -6 0 -13 11 -16 25 -4
15 -19 52 -35 85 -32 66 -49 121 -32 105 6 -6 26 -42 45 -80z m-745 -2 c-13
-15 -29 -17 -29 -3 0 6 7 10 15 10 9 0 12 6 8 16 -5 13 -7 13 -14 2 -5 -7 -9
-8 -9 -2 0 21 15 25 27 8 9 -13 10 -21 2 -31z m694 -70 c0 -7 4 -13 9 -13 4 0
8 -10 8 -22 0 -13 5 -30 10 -38 8 -13 10 -12 10 3 0 35 27 16 34 -25 1 -7 6
-20 11 -28 7 -12 6 -13 -7 -3 -8 7 -18 10 -21 6 -4 -3 -7 -1 -7 4 0 6 6 14 13
16 6 3 2 6 -10 6 -18 1 -23 -5 -24 -26 -1 -23 -3 -21 -11 12 -5 22 -10 50 -10
63 0 12 -3 22 -7 22 -11 0 -39 64 -46 106 -6 38 -6 38 20 -16 15 -30 28 -61
28 -67z m1107 97 c0 -5 -2 -10 -4 -10 -3 0 -8 5 -11 10 -3 6 -1 10 4 10 6 0
11 -4 11 -10z m-1446 -40 c7 -24 6 -24 -8 -6 -9 11 -16 27 -16 35 0 21 16 2
24 -29z m1543 5 c-1 -19 -6 -35 -11 -35 -4 0 -6 10 -2 23 3 12 6 28 6 35 0 6
2 12 5 12 3 0 4 -16 2 -35z m-1592 5 c3 -5 2 -10 -4 -10 -5 0 -13 5 -16 10 -3
6 -2 10 4 10 5 0 13 -4 16 -10z m349 -71 c4 -18 2 -17 -8 6 -15 32 -23 35 -38
13 -7 -9 -8 -7 -3 7 4 11 10 28 13 39 4 15 7 14 17 -11 7 -16 15 -40 19 -54z
m1108 -13 c21 19 28 7 20 -33 l-7 -31 -85 80 -85 80 70 -55 c63 -50 72 -54 87
-41z m-1251 -40 c5 3 9 -10 8 -28 0 -27 -9 -28 -11 -1 -1 5 -8 13 -15 19 -14
9 -53 106 -53 129 0 5 14 -20 32 -57 17 -37 35 -65 39 -62z m59 57 c-10 -16
-11 -15 -6 7 3 14 6 34 7 45 1 13 3 11 6 -7 2 -15 -1 -35 -7 -45z m870 42 c14
-19 14 -19 -2 -6 -10 7 -18 18 -18 24 0 6 1 8 3 6 1 -2 9 -13 17 -24z m355 15
c3 -5 1 -10 -4 -10 -6 0 -11 5 -11 10 0 6 2 10 4 10 3 0 8 -4 11 -10z m-2311
-113 c-9 -40 -23 -99 -31 -132 -8 -33 -17 -79 -20 -102 -7 -51 -18 -55 -27
-12 -9 45 -7 89 3 89 5 0 12 21 16 48 5 26 10 52 11 57 2 6 9 34 15 63 8 36
15 49 20 40 6 -8 9 1 9 27 1 35 2 37 11 17 6 -16 4 -46 -7 -95z m839 56 c8
-27 18 -59 21 -73 l5 -25 -20 24 c-10 13 -19 34 -19 46 0 13 -4 35 -10 49 -5
15 -6 26 -1 26 5 0 16 -21 24 -47z m1258 5 c30 -40 31 -41 5 -18 -26 24 -52
60 -42 60 2 0 19 -19 37 -42z m-1928 17 c-3 -9 -8 -14 -10 -11 -3 3 -2 9 2 15
9 16 15 13 8 -4z m277 5 c0 -5 -4 -10 -10 -10 -5 0 -10 5 -10 10 0 6 5 10 10
10 6 0 10 -4 10 -10z m492 -28 c6 -15 14 -41 18 -59 13 -53 -16 -29 -30 25 -7
26 -14 53 -16 60 -7 24 17 1 28 -26z m855 16 c-3 -8 -6 -5 -6 6 -1 11 2 17 5
13 3 -3 4 -12 1 -19z m-893 -45 c20 -57 20 -64 1 -57 -14 6 -35 62 -35 97 0
30 17 10 34 -40z m-504 27 c0 -5 -4 -10 -10 -10 -5 0 -10 5 -10 10 0 6 5 10
10 10 6 0 10 -4 10 -10z m310 -45 c0 -5 -5 -3 -10 5 -5 8 -10 20 -10 25 0 6 5
3 10 -5 5 -8 10 -19 10 -25z m431 2 c4 -15 3 -27 -2 -27 -10 0 -29 33 -29 50
0 22 24 4 31 -23z m-691 -64 c0 -7 -11 -13 -24 -13 -18 0 -27 8 -35 31 -17 50
-11 58 10 14 20 -43 24 -38 10 12 -5 17 -6 34 -3 38 7 7 41 -61 42 -82z m4 47
l7 -25 -15 25 c-17 28 -21 50 -7 35 5 -6 12 -21 15 -35z m302 -7 c-3 -4 -6 -1
-6 6 0 17 -30 -13 -31 -31 0 -9 -2 -10 -6 -1 -2 7 4 23 14 37 15 20 19 21 26
9 5 -8 6 -17 3 -20z m34 11 c0 -8 -4 -14 -10 -14 -5 0 -10 9 -10 21 0 11 5 17
10 14 6 -3 10 -13 10 -21z m410 -6 c0 -5 -9 -8 -20 -8 -12 0 -20 7 -20 18 0
14 2 15 10 2 8 -12 10 -12 10 5 0 17 2 17 10 5 5 -8 10 -18 10 -22z m-707 -15
c5 -25 3 -33 -8 -33 -15 0 -22 50 -8 63 8 9 9 8 16 -30z m1337 4 c0 -5 -4 -5
-10 -2 -5 3 -10 14 -10 23 0 15 2 15 10 2 5 -8 10 -19 10 -23z m-1510 14 c0
-6 -4 -13 -10 -16 -5 -3 -10 1 -10 9 0 9 5 16 10 16 6 0 10 -4 10 -9z m803
-25 c8 3 20 -2 27 -11 10 -12 10 -15 -4 -15 -9 0 -16 5 -16 12 0 6 -3 8 -7 5
-9 -10 -33 13 -32 32 0 11 3 9 9 -6 6 -13 15 -20 23 -17z m851 -9 c17 -15 15
-15 -10 2 -17 11 -34 18 -37 15 -3 -3 -8 0 -13 7 -4 7 -3 10 4 5 6 -3 14 -1
18 6 6 9 9 9 12 -2 3 -8 15 -23 26 -33z m-1589 -16 c5 -16 4 -21 -4 -17 -6 4
-11 17 -12 29 0 21 -1 21 -9 2 -10 -23 -13 -5 -4 20 8 19 16 10 29 -34z m160
-64 c9 -42 14 -84 11 -92 -4 -11 -23 -15 -76 -15 -39 0 -69 4 -66 9 7 11 -24
38 -44 39 -25 1 -49 8 -56 15 -12 11 15 8 39 -5 20 -10 21 -10 8 5 -12 15 -11
17 10 17 37 0 69 11 63 21 -3 5 -24 6 -47 3 -41 -6 -41 -5 -16 9 39 22 77 29
85 15 5 -7 10 -4 15 10 9 24 29 30 29 10 0 -9 4 -8 10 2 5 8 7 24 4 35 -4 13
-3 17 4 10 5 -5 18 -45 27 -88z m105 62 c0 -6 -4 -7 -10 -4 -5 3 -10 11 -10
16 0 6 5 7 10 4 6 -3 10 -11 10 -16z m550 -1 c0 -6 -6 -5 -15 2 -8 7 -15 14
-15 16 0 2 7 1 15 -2 8 -4 15 -11 15 -16z m120 1 c0 -5 29 -47 64 -93 56 -72
66 -91 71 -137 l7 -54 -21 25 c-12 14 -24 35 -27 48 -3 12 -10 22 -14 22 -4 0
-15 17 -25 38 -9 20 -25 55 -35 77 -31 65 -41 97 -30 90 6 -3 10 -11 10 -16z
m921 -22 c12 -22 12 -22 -10 -3 -18 17 -21 17 -15 3 9 -24 -3 -21 -17 4 -8 15
-8 19 0 15 6 -4 11 -2 11 4 0 16 18 3 31 -23z m-513 -2 c-3 -3 -9 2 -12 12 -6
14 -5 15 5 6 7 -7 10 -15 7 -18z m-1472 -43 c-12 -11 -17 7 -9 34 l8 29 3 -28
c2 -16 1 -31 -2 -35z m729 13 c1 -33 -17 -15 -21 21 -2 19 0 24 8 16 7 -7 12
-23 13 -37z m620 35 c3 -6 -1 -7 -9 -4 -10 4 -16 1 -16 -7 0 -7 -3 -10 -6 -6
-7 7 4 27 16 27 5 0 12 -4 15 -10z m-1519 -58 c-14 -15 -15 -13 -3 17 8 23 13
28 15 16 2 -10 -3 -25 -12 -33z m704 17 c0 -6 -4 -7 -10 -4 -5 3 -10 11 -10
16 0 6 5 7 10 4 6 -3 10 -11 10 -16z m119 -96 c1 -13 -3 -23 -8 -23 -11 0 -21
52 -20 104 l1 41 13 -50 c7 -27 14 -60 14 -72z m835 74 c4 4 4 -1 0 -11 -5
-13 -4 -17 4 -12 7 4 10 -1 9 -13 -2 -26 -13 -17 -37 29 -25 49 -26 64 -2 27
10 -15 22 -24 26 -20z m-1519 23 c3 -5 1 -10 -4 -10 -6 0 -11 5 -11 10 0 6 2
10 4 10 3 0 8 -4 11 -10z m371 -44 c0 -30 -4 -52 -8 -50 -12 8 -6 104 6 104 1
0 2 -24 2 -54z m242 -12 c4 2 5 -17 3 -42 l-5 -47 -11 70 c-6 39 -9 75 -6 80
3 6 7 -7 9 -28 2 -20 6 -36 10 -33z m282 21 c0 -5 -5 -3 -10 5 -5 8 -10 20
-10 25 0 6 5 3 10 -5 5 -8 10 -19 10 -25z m494 13 c5 -19 8 -21 16 -8 6 9 10
10 10 3 0 -22 -18 -24 -33 -3 -7 11 -17 17 -22 12 -5 -4 -5 -1 -1 6 11 19 23
14 30 -10z m-1434 2 c0 -5 -7 -10 -16 -10 -8 0 -12 5 -9 10 3 6 10 10 16 10 5
0 9 -4 9 -10z m455 -78 c-5 -19 -9 -22 -18 -13 -9 9 -9 16 1 31 6 11 13 32 14
47 1 24 2 23 5 -6 3 -19 2 -45 -2 -59z m1172 36 c16 -24 40 -62 53 -85 13 -23
28 -39 33 -36 6 4 7 1 2 -7 -6 -10 -17 -4 -43 26 -19 21 -41 53 -48 69 -8 17
-21 40 -30 53 -9 12 -12 22 -7 22 5 0 23 -19 40 -42z m-1552 -25 c-2 -7 2 -13
10 -13 8 0 18 -6 22 -12 4 -7 28 -14 53 -14 25 -1 79 -3 121 -4 l77 -3 -8 -26
c-38 -117 -34 -115 -125 -92 -72 18 -72 18 -57 33 8 8 7 15 -6 25 -16 14 -16
14 1 9 9 -3 25 -9 35 -12 9 -3 6 1 -8 10 -14 8 -33 13 -42 10 -12 -4 -18 0
-18 12 0 17 -7 17 -104 -1 -26 -5 -28 -4 -16 10 7 9 19 14 27 11 8 -3 16 1 20
9 4 12 8 13 19 4 12 -10 13 -9 8 5 -3 9 -12 16 -18 16 -7 0 -13 6 -13 13 0 6
-4 26 -8 42 l-7 30 21 -25 c11 -14 19 -31 16 -37z m522 20 c-3 -10 -5 -4 -5
12 0 17 2 24 5 18 2 -7 2 -21 0 -30z m668 -5 c16 -24 22 -38 14 -31 -15 12
-53 73 -46 73 2 0 17 -19 32 -42z m-321 -53 l6 -30 -14 25 c-7 14 -16 39 -20
55 l-6 30 14 -25 c7 -14 16 -38 20 -55z m407 20 c7 -13 3 -12 -10 5 -11 14
-21 30 -21 35 0 11 14 -7 31 -40z m-774 -12 c-3 -10 -5 -2 -5 17 0 19 2 27 5
18 2 -10 2 -26 0 -35z m383 27 c0 -11 -2 -20 -4 -20 -2 0 -6 9 -9 20 -3 11 -1
20 4 20 5 0 9 -9 9 -20z m109 -35 l0 -20 -9 20 c-5 11 -9 29 -9 40 l0 20 9
-20 c5 -11 9 -29 9 -40z m-944 35 c3 -5 1 -10 -4 -10 -6 0 -11 5 -11 10 0 6 2
10 4 10 3 0 8 -4 11 -10z m395 -10 c0 -11 -4 -20 -9 -20 -5 0 -7 9 -4 20 3 11
7 20 9 20 2 0 4 -9 4 -20z m-703 -22 c-3 -8 -6 -5 -6 6 -1 11 2 17 5 13 3 -3
4 -12 1 -19z m396 15 c-7 -2 -21 -2 -30 0 -10 3 -4 5 12 5 17 0 24 -2 18 -5z
m1217 -38 c0 -5 -5 -3 -10 5 -5 8 -10 20 -10 25 0 6 5 3 10 -5 5 -8 10 -19 10
-25z m-442 -50 c0 -5 -6 4 -13 20 -8 17 -14 37 -14 45 0 8 7 -1 14 -20 7 -19
13 -39 13 -45z m-1190 43 c-2 -6 -10 -14 -16 -16 -7 -2 -10 2 -6 12 7 18 28
22 22 4z m190 0 c-2 -7 -18 -20 -36 -29 -17 -9 -28 -20 -24 -24 4 -5 2 -5 -4
-2 -7 4 -15 0 -18 -8 -5 -13 0 -15 29 -9 19 3 43 3 52 -2 10 -4 23 -8 28 -8
16 -1 12 -29 -5 -33 -13 -4 -13 -3 0 6 13 9 13 11 -1 11 -9 0 -19 -7 -23 -15
-3 -8 -13 -15 -21 -15 -9 0 -13 -4 -10 -10 3 -5 2 -10 -4 -10 -6 0 -19 -10
-31 -22 -11 -12 -20 -18 -20 -13 0 5 10 19 22 32 12 13 17 23 11 23 -6 0 -16
-7 -24 -16 -12 -14 -14 -14 -27 3 -12 16 -13 15 -9 -12 3 -16 8 -37 12 -46 3
-10 1 -20 -6 -24 -7 -5 -10 -3 -7 6 3 8 -4 29 -15 48 -16 27 -18 37 -9 52 18
29 3 23 -29 -12 -16 -18 -32 -29 -36 -26 -9 10 50 75 74 82 12 4 29 15 39 26
9 10 23 19 31 19 7 0 13 5 13 11 0 5 4 8 9 5 5 -3 11 1 15 9 7 18 29 20 24 3z
m380 -75 c-6 -29 -14 -53 -19 -53 -5 0 -5 -7 -2 -17 4 -11 3 -14 -5 -9 -13 8
-12 76 1 76 4 0 13 14 19 31 15 44 18 32 6 -28z m149 25 c-3 -8 -6 -5 -6 6 -1
11 2 17 5 13 3 -3 4 -12 1 -19z m1093 12 c0 -5 -2 -10 -4 -10 -3 0 -8 5 -11
10 -3 6 -1 10 4 10 6 0 11 -4 11 -10z m-1130 -30 c0 -5 -2 -10 -4 -10 -3 0 -8
5 -11 10 -3 6 -1 10 4 10 6 0 11 -4 11 -10z m-68 -15 c7 17 8 16 3 -5 -2 -14
-5 -41 -5 -60 0 -26 -3 -31 -10 -20 -7 12 -10 8 -10 -15 0 -23 -3 -27 -10 -15
-9 13 -11 13 -20 0 -8 -13 -10 -13 -10 1 0 9 3 19 7 23 4 4 8 13 9 19 0 7 2
20 2 30 1 10 7 15 13 12 6 -4 10 -1 8 6 -3 27 3 45 9 24 l5 -20 9 20z m580 -7
c-7 -7 -12 -8 -12 -2 0 6 3 14 7 17 3 4 9 5 12 2 2 -3 -1 -11 -7 -17z m-1282
-15 c-1 -24 -2 -26 -11 -10 -5 9 -7 22 -4 27 10 17 15 11 15 -17z m787 -20
c-3 -10 -5 -2 -5 17 0 19 2 27 5 18 2 -10 2 -26 0 -35z m90 25 c-3 -8 -6 -5
-6 6 -1 11 2 17 5 13 3 -3 4 -12 1 -19z m-851 -36 c-11 -10 -15 4 -8 28 l7 25
3 -23 c2 -13 1 -26 -2 -30z m741 -14 c-2 -13 -4 -3 -4 22 0 25 2 35 4 23 2
-13 2 -33 0 -45z m740 20 c-3 -8 -6 -5 -6 6 -1 11 2 17 5 13 3 -3 4 -12 1 -19z
m-650 -120 c-2 -24 -4 -5 -4 42 0 47 2 66 4 43 2 -24 2 -62 0 -85z m-130 65
c-3 -10 -5 -2 -5 17 0 19 2 27 5 18 2 -10 2 -26 0 -35z m173 -33 c0 -47 -4
-80 -10 -80 -11 0 -14 118 -4 144 11 29 14 17 14 -64z m-843 -7 c-24 -32 -53
-75 -64 -95 l-20 -38 1 45 c1 41 6 49 28 46 3 0 25 22 48 49 57 68 61 63 7 -7z
m740 10 c-3 -10 -5 -2 -5 17 0 19 2 27 5 18 2 -10 2 -26 0 -35z m-40 15 c-3
-8 -6 -5 -6 6 -1 11 2 17 5 13 3 -3 4 -12 1 -19z m79 -66 c-11 -10 -14 3 -7
38 l6 35 3 -33 c2 -19 1 -36 -2 -40z m-333 34 c-10 -12 -19 -23 -21 -25 -1 -3
0 6 2 20 5 29 3 26 21 26 13 0 12 -4 -2 -21z m-284 -46 c13 0 13 -2 2 -9 -7
-5 -11 -13 -8 -18 7 -11 15 -52 23 -118 3 -27 12 -53 19 -58 40 -22 60 -64 30
-64 -8 0 -12 4 -9 9 6 10 -14 38 -27 38 -5 0 -6 -8 -2 -17 4 -12 3 -15 -4 -8
-5 6 -16 36 -23 67 -8 37 -17 55 -24 51 -6 -4 -5 0 2 9 10 13 11 22 2 37 -6
12 -13 21 -16 21 -3 0 -2 -4 1 -10 3 -5 2 -10 -4 -10 -18 0 -20 16 -6 44 8 14
10 24 5 21 -12 -7 -12 1 -3 35 l6 24 10 -22 c6 -12 17 -22 26 -22z m-58 -2
c-3 -21 -6 -26 -9 -15 -3 17 3 47 11 47 2 0 1 -15 -2 -32z m789 -19 c0 -22 -4
-38 -8 -35 -8 5 -4 76 4 76 2 0 4 -18 4 -41z m-457 -30 c-9 -9 -12 -7 -10 9 1
14 5 18 11 12 7 -7 6 -14 -1 -21z m32 1 c-4 -12 -9 -19 -12 -17 -3 3 -2 15 2
27 4 12 9 19 12 17 3 -3 2 -15 -2 -27z m345 26 c0 -3 -4 -8 -10 -11 -5 -3 -10
-1 -10 4 0 6 5 11 10 11 6 0 10 -2 10 -4z m42 -28 c-8 -8 -9 -4 -5 13 4 13 8
18 11 10 2 -7 -1 -18 -6 -23z m-198 6 c3 -8 2 -12 -4 -9 -6 3 -10 10 -10 16 0
14 7 11 14 -7z m-79 -36 c-4 -18 -11 -37 -17 -43 -6 -7 -8 -5 -4 5 2 8 7 27
10 43 4 15 9 27 12 27 3 0 3 -15 -1 -32z m149 -5 c-10 -40 -14 -41 -14 -5 0
18 5 32 10 32 6 0 8 -11 4 -27z m104 6 c7 -12 11 -23 9 -26 -3 -3 -10 5 -17
16 -6 12 -16 18 -22 15 -7 -4 -8 -3 -4 4 10 17 19 15 34 -9z m-781 -14 c-7
-13 -14 -20 -15 -14 -2 5 2 16 8 24 18 21 20 18 7 -10z m73 -18 c0 -2 -10 -12
-21 -23 -22 -19 -22 -19 -10 4 10 18 31 31 31 19z m8 -82 c-6 -14 -13 -23 -15
-21 -5 5 15 46 22 46 3 0 -1 -11 -7 -25z m97 -3 c-3 -3 -11 0 -18 7 -9 10 -8
11 6 5 10 -3 15 -9 12 -12z m-245 -12 c0 -5 -5 -10 -11 -10 -5 0 -7 5 -4 10 3
6 8 10 11 10 2 0 4 -4 4 -10z m300 -35 c0 -5 -5 -3 -10 5 -5 8 -10 20 -10 25
0 6 5 3 10 -5 5 -8 10 -19 10 -25z m-192 -10 c-6 -14 -13 -23 -15 -21 -5 5 15
46 22 46 3 0 -1 -11 -7 -25z m149 -81 c-9 -9 -28 6 -21 18 4 6 10 6 17 -1 6
-6 8 -13 4 -17z"/>
<path d="M2420 2321 c0 -6 5 -13 10 -16 6 -3 10 1 10 9 0 9 -4 16 -10 16 -5 0
-10 -4 -10 -9z"/>
<path d="M220 1931 c0 -6 5 -13 10 -16 6 -3 10 1 10 9 0 9 -4 16 -10 16 -5 0
-10 -4 -10 -9z"/>
<path d="M2690 2970 c8 -5 20 -10 25 -10 6 0 3 5 -5 10 -8 5 -19 10 -25 10 -5
0 -3 -5 5 -10z"/>
<path d="M4185 2954 c-16 -7 -47 -13 -68 -14 -32 0 -39 -4 -47 -27 -6 -16 -26
-58 -45 -94 -19 -37 -35 -78 -35 -93 0 -23 4 -26 35 -26 34 0 35 1 35 38 0 51
21 77 73 92 36 11 48 22 72 64 17 28 31 54 33 57 6 14 -25 15 -53 3z"/>
<path d="M2347 2863 c-13 -3 4 -19 63 -61 44 -31 80 -63 80 -70 0 -7 7 -15 15
-18 8 -4 13 -10 10 -15 -3 -4 15 2 40 14 29 14 43 27 40 36 -4 10 1 12 20 9
13 -3 26 0 28 5 2 7 6 7 11 -1 4 -7 3 -12 -3 -12 -6 0 -17 -13 -26 -30 -15
-30 -15 -30 10 -30 25 0 44 29 48 72 1 10 5 14 12 9 5 -4 19 -11 30 -15 17 -6
16 -3 -6 19 -26 26 -26 26 -65 10 -21 -9 -41 -16 -44 -16 -21 2 -38 -12 -33
-27 6 -15 5 -15 -10 -4 -9 8 -22 12 -29 9 -7 -3 -5 -6 7 -6 18 -1 18 -2 3 -17
-17 -18 -43 -10 -32 9 4 7 4 9 0 5 -4 -3 -35 24 -69 60 -64 69 -70 73 -100 65z"/>
<path d="M4373 2824 c-17 -9 -37 -29 -43 -45 -7 -16 -35 -49 -61 -73 -27 -24
-49 -49 -49 -54 0 -11 34 -19 90 -21 19 -1 45 -9 59 -19 13 -9 30 -21 38 -27
11 -7 19 -4 34 14 17 21 20 38 18 120 -2 122 -16 139 -86 105z"/>
<path d="M2346 2797 c3 -10 9 -15 12 -12 3 3 0 11 -7 18 -10 9 -11 8 -5 -6z"/>
<path d="M2355 2750 c-18 -8 -17 -9 8 -9 16 -1 26 3 22 9 -3 6 -7 10 -8 9 -1
0 -11 -4 -22 -9z"/>
<path d="M2090 2685 c12 -13 26 -22 31 -20 4 3 10 1 14 -5 3 -5 14 -10 23 -10
12 0 7 9 -16 30 -18 17 -43 30 -54 30 -21 0 -21 0 2 -25z"/>
<path d="M1727 2640 c-8 -22 -14 -40 -12 -40 9 0 43 70 36 74 -5 3 -15 -12
-24 -34z"/>
<path d="M2187 2639 c7 -7 15 -10 18 -7 3 3 -2 9 -12 12 -14 6 -15 5 -6 -5z"/>
<path d="M2220 2626 c0 -2 7 -7 16 -10 8 -3 12 -2 9 4 -6 10 -25 14 -25 6z"/>
<path d="M2327 2619 c-9 -6 -30 -12 -45 -13 -15 -2 -31 -4 -36 -5 -5 0 -3 -7
3 -15 10 -12 21 -11 73 6 42 14 56 23 47 29 -17 11 -20 11 -42 -2z"/>
<path d="M2364 2590 c-52 -8 -112 -33 -69 -29 11 1 27 -1 37 -5 9 -4 31 -6 50
-3 30 3 29 4 -9 5 -53 2 -57 22 -5 22 20 0 44 5 52 10 17 11 17 11 -56 0z"/>
<path d="M2680 2590 c20 -13 40 -13 40 0 0 6 -12 10 -27 10 -22 0 -25 -2 -13
-10z"/>
<path d="M2144 2547 c3 -10 6 -20 6 -23 0 -2 7 -1 15 2 17 7 21 34 5 34 -5 0
-10 -6 -10 -12 0 -9 -4 -8 -11 2 -9 12 -10 12 -5 -3z"/>
<path d="M1988 2521 c9 -16 18 -28 20 -27 5 6 -21 56 -29 56 -5 0 0 -13 9 -29z"/>
<path d="M1775 2530 c3 -5 8 -10 11 -10 2 0 4 5 4 10 0 6 -5 10 -11 10 -5 0
-7 -4 -4 -10z"/>
<path d="M2230 2526 c0 -2 7 -9 15 -16 9 -7 15 -8 15 -2 0 5 -7 12 -15 16 -8
3 -15 4 -15 2z"/>
<path d="M2300 2510 c8 -5 20 -10 25 -10 6 0 3 5 -5 10 -8 5 -19 10 -25 10 -5
0 -3 -5 5 -10z"/>
<path d="M1601 2493 c-1 -12 4 -25 9 -28 12 -7 12 2 0 30 -8 19 -9 19 -9 -2z"/>
<path d="M3383 2473 c-6 -15 15 -101 28 -119 5 -6 5 -14 1 -19 -4 -4 0 -6 8
-3 8 3 15 9 16 14 0 5 3 16 6 24 22 60 38 107 38 113 0 14 -92 4 -97 -10z"/>
<path d="M4245 2463 c-26 -7 -35 -21 -35 -55 0 -27 2 -28 49 -28 28 0 52 4 55
9 12 19 -24 84 -44 80 -3 -1 -14 -4 -25 -6z"/>
<path d="M1988 2442 c-22 -4 -23 -18 -4 -25 8 -3 17 1 20 10 8 19 6 20 -16 15z"/>
<path d="M1867 2425 c-4 -8 -3 -16 1 -19 4 -3 9 4 9 15 2 23 -3 25 -10 4z"/>
<path d="M2144 2396 c1 -19 4 -32 7 -30 7 4 23 -26 21 -38 -1 -3 6 -12 14 -19
13 -10 17 -10 24 2 7 10 9 8 7 -8 0 -12 -6 -19 -12 -15 -5 3 -4 -2 4 -11 7 -9
18 -14 24 -10 5 3 7 1 3 -5 -7 -12 42 -74 54 -67 4 3 22 -11 39 -30 59 -68 31
-17 -46 83 -43 55 -92 118 -109 141 l-30 40 0 -33z m138 -171 c2 3 5 -2 5 -10
0 -19 0 -19 -23 7 -12 14 -13 18 -3 10 9 -6 18 -10 21 -7z"/>
<path d="M1821 2404 c0 -11 3 -14 6 -6 3 7 2 16 -1 19 -3 4 -6 -2 -5 -13z"/>
<path d="M4403 2370 c-27 -11 -29 -31 -7 -65 25 -38 22 -90 -6 -120 -13 -14
-32 -25 -42 -25 -17 0 -17 -2 -4 -27 8 -16 30 -44 50 -62 54 -52 61 -38 63
130 3 129 -5 180 -25 178 -4 0 -17 -4 -29 -9z"/>
<path d="M3175 2350 c-3 -5 10 -19 29 -31 35 -21 54 -57 41 -78 -3 -6 0 -11 7
-11 9 0 9 -3 -2 -10 -9 -6 -11 -10 -3 -10 8 0 10 -7 6 -17 -9 -22 -28 -43 -41
-43 -6 0 -8 -9 -5 -20 6 -21 19 -27 25 -10 2 6 13 12 26 13 23 1 26 10 23 61
-1 16 4 35 10 42 13 16 4 64 -12 64 -6 0 -7 5 -4 10 3 6 1 10 -5 10 -6 0 -9 4
-6 9 7 11 -22 23 -36 14 -7 -3 -8 -1 -4 5 10 16 -7 15 -23 0 -11 -10 -13 -10
-7 0 8 14 -10 17 -19 2z"/>
<path d="M3786 2333 c-6 -14 -5 -15 5 -6 7 7 10 15 7 18 -3 3 -9 -2 -12 -12z"/>
<path d="M3598 2313 c-19 -21 -24 -33 -18 -48 7 -18 8 -19 15 -2 4 9 16 17 27
17 16 0 18 -5 12 -37 -4 -21 -4 -35 0 -32 4 4 9 17 11 30 3 13 15 31 27 41 19
14 21 21 12 35 -18 29 -56 27 -86 -4z"/>
<path d="M3530 2213 c0 -24 5 -43 10 -43 19 0 22 28 6 57 l-15 28 -1 -42z"/>
<path d="M3874 2198 c1 -17 -5 -24 -22 -26 -36 -5 -57 -33 -56 -74 1 -45 10
-58 19 -29 7 24 51 38 74 24 8 -5 18 -21 21 -34 4 -16 8 -20 14 -11 4 6 4 17
0 24 -4 6 1 17 10 24 15 11 16 15 3 46 -8 18 -25 43 -39 56 l-25 22 1 -22z"/>
<path d="M4108 2205 c-4 -4 -3 -17 2 -30 5 -13 6 -26 3 -29 -10 -10 33 -7 61
4 15 5 42 11 61 13 43 5 53 13 37 29 -14 14 -153 24 -164 13z"/>
<path d="M2200 2182 c0 -6 5 -14 10 -17 6 -4 7 -11 4 -17 -4 -6 -2 -8 4 -4 6
3 17 -2 24 -12 7 -10 20 -22 28 -27 11 -6 10 -3 -2 12 -20 22 -24 38 -7 27 8
-4 8 0 0 15 -14 25 -26 28 -17 4 5 -13 0 -11 -18 6 -15 14 -26 19 -26 13z"/>
<path d="M3471 2156 c-15 -18 3 -17 34 2 20 11 20 11 -1 12 -12 0 -27 -6 -33
-14z"/>
<path d="M2160 2096 c0 -2 8 -10 18 -17 15 -13 16 -12 3 4 -13 16 -21 21 -21
13z"/>
<path d="M3651 2043 c-1 -7 -2 -16 -3 -20 -2 -3 4 -7 13 -8 9 -2 16 3 16 11 0
7 -4 11 -8 8 -4 -2 -10 2 -12 8 -4 10 -6 10 -6 1z"/>
<path d="M1807 1983 c-2 -5 -1 -17 3 -27 6 -19 7 -19 12 2 6 21 -6 40 -15 25z"/>
<path d="M3151 1974 c-1 -15 6 -23 23 -26 19 -4 22 -1 18 14 -5 20 -22 25 -23
6 0 -7 -4 -4 -9 7 -8 19 -9 19 -9 -1z"/>
<path d="M3568 1961 c-12 -21 -13 -33 -6 -37 6 -4 8 -3 4 4 -3 6 3 14 15 17
13 5 25 2 29 -6 12 -19 36 -19 36 0 1 9 3 23 5 31 3 11 -6 16 -31 18 -30 2
-37 -2 -52 -27z"/>
<path d="M4156 1978 c3 -5 10 -6 15 -3 5 4 9 -1 9 -9 0 -8 11 -26 25 -40 29
-29 27 -60 -7 -108 -32 -47 0 -64 56 -30 21 13 32 30 41 67 21 82 -12 127 -95
130 -27 1 -47 -2 -44 -7z"/>
<path d="M1843 1953 c4 -6 3 -13 -3 -15 -6 -2 0 -9 12 -17 22 -13 22 -13 8 4
-8 10 -13 20 -12 22 2 3 0 8 -4 11 -4 4 -4 2 -1 -5z"/>
<path d="M3434 1952 c3 -5 -8 -7 -23 -4 -16 2 -32 -1 -36 -9 -6 -8 -4 -10 5
-4 7 4 15 3 19 -2 3 -6 22 -13 42 -17 29 -5 38 -3 43 10 5 14 4 15 -8 5 -12
-10 -16 -8 -21 8 -3 12 -11 21 -16 21 -6 0 -8 -4 -5 -8z"/>
<path d="M1595 1906 c10 -14 19 -26 22 -26 7 0 -17 39 -28 46 -6 3 -3 -5 6
-20z"/>
<path d="M3446 1884 c-9 -23 6 -36 21 -19 10 10 9 16 -1 24 -10 9 -15 7 -20
-5z"/>
<path d="M1545 1860 c-3 -5 -1 -10 4 -10 6 0 11 5 11 10 0 6 -2 10 -4 10 -3 0
-8 -4 -11 -10z"/>
<path d="M3920 1848 c0 -20 7 -27 39 -36 45 -14 78 -15 85 -3 10 16 -42 53
-83 58 -38 5 -41 4 -41 -19z"/>
<path d="M3862 1835 c0 -16 2 -22 5 -12 2 9 2 23 0 30 -3 6 -5 -1 -5 -18z"/>
<path d="M3801 1842 c-1 -18 -27 -43 -35 -35 -9 10 -7 -6 4 -28 14 -25 19 -24
54 6 26 23 27 25 8 25 -13 0 -22 8 -25 23 -2 12 -5 16 -6 9z"/>
<path d="M3470 1780 c0 -20 9 -39 24 -53 14 -12 38 -35 55 -50 17 -16 35 -25
41 -22 17 11 11 82 -11 119 -19 33 -25 36 -65 36 -42 0 -44 -1 -44 -30z"/>
<path d="M393 1675 c-2 -58 1 -105 5 -105 11 0 14 148 5 183 -6 18 -9 -7 -10
-78z"/>
<path d="M3241 1752 c-19 -9 -36 -25 -37 -34 -2 -19 1 -20 41 -20 45 0 53 2
58 16 8 20 -3 56 -17 56 -6 0 -26 -8 -45 -18z"/>
<path d="M4427 1720 c-11 -31 -17 -70 -12 -70 2 0 12 11 21 24 11 18 13 30 5
43 -8 15 -10 15 -14 3z"/>
<path d="M3011 1704 c0 -11 3 -14 6 -6 3 7 2 16 -1 19 -3 4 -6 -2 -5 -13z"/>
<path d="M1010 1651 c0 -6 4 -13 10 -16 6 -3 7 1 4 9 -7 18 -14 21 -14 7z"/>
<path d="M970 1619 c0 -15 7 -29 15 -33 18 -7 18 2 0 34 l-14 25 -1 -26z"/>
<path d="M1785 1630 c-15 -5 -13 -9 15 -20 l32 -13 -27 -14 c-24 -13 -28 -13
-40 3 -7 10 -11 24 -8 31 3 7 -2 13 -11 13 -9 0 -16 -8 -16 -19 0 -11 -3 -28
-6 -38 -6 -17 -6 -17 8 0 12 17 15 17 27 4 10 -13 9 -17 -7 -26 -28 -15 -46 9
-37 49 l7 31 -56 -2 c-30 -1 -54 -6 -53 -11 4 -17 -37 -38 -53 -28 -12 7 -10
11 10 19 24 9 24 10 3 10 -12 1 -57 -13 -100 -30 -43 -17 -94 -36 -113 -42
-19 -5 -30 -12 -24 -14 5 -2 51 12 101 30 l90 34 34 -19 c19 -11 26 -17 16
-14 -17 6 -137 -70 -153 -96 -9 -14 8 -4 72 44 56 42 60 43 116 26 38 -11 39
-13 33 -42 -15 -68 -15 -78 2 -27 16 48 20 52 32 37 11 -13 13 -44 8 -154 -4
-75 -7 -202 -7 -281 l0 -143 -26 6 c-14 4 -23 3 -20 -2 3 -5 -6 -7 -20 -4 -21
4 -32 18 -55 69 -16 36 -29 66 -29 68 0 2 33 6 73 7 39 2 -10 5 -111 6 -212 2
-215 1 -158 -78 41 -57 39 -77 -10 -86 l-34 -6 0 -65 0 -64 48 0 c93 0 287
-10 302 -16 8 -3 21 -5 28 -4 6 1 12 -3 12 -9 0 -5 5 -10 11 -10 5 0 7 5 4 10
-3 6 1 10 9 10 8 0 18 -4 21 -10 3 -5 1 -10 -6 -10 -7 0 -9 -3 -6 -6 4 -4 13
-1 22 6 10 8 15 9 15 1 0 -7 8 -8 25 -1 23 9 29 6 26 -13 -1 -4 8 -3 20 4 12
6 66 13 121 15 103 4 122 8 115 27 -2 7 2 19 10 28 9 11 12 29 7 57 -6 38 -8
40 -27 31 -17 -10 -19 -9 -15 9 3 10 0 52 -7 93 -7 40 -11 79 -8 86 4 10 -21
13 -113 13 -66 0 -130 3 -143 7 -23 6 -24 5 -17 -41 4 -26 14 -65 21 -86 15
-41 12 -50 -17 -50 -10 0 -18 -7 -18 -15 0 -8 7 -15 15 -15 11 0 15 -11 15
-41 0 -52 -15 -42 -30 21 -7 28 -16 53 -21 56 -5 3 -9 104 -9 225 0 158 3 218
11 213 8 -5 8 -1 0 14 -14 27 -2 118 18 136 35 32 56 24 105 -38 54 -70 62
-66 11 5 -19 27 -35 53 -35 58 0 5 15 15 34 21 32 10 41 7 125 -34 50 -26 96
-46 103 -45 7 0 -38 26 -101 58 -68 35 -110 61 -102 65 6 4 27 2 46 -4 19 -6
41 -10 47 -8 13 5 -112 39 -134 37 -7 -1 -2 -4 12 -8 16 -4 21 -9 13 -14 -7
-4 -20 0 -31 11 -11 11 -25 16 -37 12z m-112 -30 c-4 -16 -8 -18 -19 -9 -16
13 -10 29 11 29 8 0 11 -7 8 -20z m-23 -25 l23 -24 -41 2 c-24 1 -36 4 -29 9
9 6 9 8 -2 8 -11 0 -11 3 -1 15 17 20 23 19 50 -10z m37 -7 c-3 -8 -6 -5 -6 6
-1 11 2 17 5 13 3 -3 4 -12 1 -19z m167 14 c3 -5 -11 -14 -32 -20 l-37 -11 25
19 c28 22 36 24 44 12z m-484 -562 c6 -11 8 -20 6 -20 -3 0 -10 9 -16 20 -6
11 -8 20 -6 20 3 0 10 -9 16 -20z m126 -108 c-5 -8 -76 -4 -76 4 0 2 18 4 41
4 22 0 38 -4 35 -8z m44 4 c0 -3 -4 -8 -10 -11 -5 -3 -10 -1 -10 4 0 6 5 11
10 11 6 0 10 -2 10 -4z m418 -13 c-21 -2 -55 -2 -75 0 -21 2 -4 4 37 4 41 0
58 -2 38 -4z m-308 -12 c0 -4 -5 -22 -11 -40 -8 -22 -17 -31 -32 -30 -21 0
-21 1 -2 9 17 7 16 9 -10 10 -16 1 -39 3 -50 4 -41 2 -21 31 30 42 64 15 75
16 75 5z m190 -27 c0 -9 -12 -14 -35 -14 -32 0 -46 15 -30 32 10 10 65 -5 65
-18z m-396 10 c36 -5 46 -11 46 -25 0 -16 -8 -19 -42 -19 -24 -1 -60 -7 -80
-14 -44 -16 -48 -13 -48 31 0 32 2 33 39 33 21 0 59 -3 85 -6z m486 -4 l-55
-7 73 -1 c99 -3 93 -22 -7 -22 -74 0 -80 2 -78 20 1 18 8 20 62 18 l60 -1 -55
-7z m130 -41 c0 -11 -4 -17 -10 -14 -5 3 -10 13 -10 21 0 8 5 14 10 14 6 0 10
-9 10 -21z m-196 -15 c4 -12 2 -15 -9 -11 -8 4 -17 2 -20 -3 -6 -10 -45 -14
-45 -6 0 2 -3 11 -6 20 -5 13 1 16 34 16 27 0 42 -5 46 -16z m155 0 c10 -9
-96 -3 -109 6 -10 7 4 8 45 4 33 -4 62 -8 64 -10z"/>
<path d="M3928 1599 c-12 -16 -36 -33 -53 -37 -27 -7 -31 -13 -35 -54 -6 -47
-32 -88 -57 -88 -20 0 -16 -27 9 -60 29 -40 43 -38 57 10 13 43 27 55 83 65
35 7 36 8 31 41 -7 41 14 77 57 99 49 25 41 33 -48 50 -16 3 -28 -4 -44 -26z"/>
<path d="M4282 1602 c-15 -16 -39 -49 -54 -73 -15 -24 -39 -58 -53 -75 l-25
-31 25 -13 c23 -12 29 -11 67 16 25 17 52 49 67 79 15 28 37 67 49 88 l24 37
-37 0 c-27 0 -43 -7 -63 -28z"/>
<path d="M3542 1586 l-31 -35 44 -25 c52 -31 65 -32 65 -6 0 25 -30 100 -39
100 -4 0 -22 -15 -39 -34z"/>
<path d="M45 1601 c-3 -5 -1 -12 5 -16 5 -3 10 1 10 9 0 18 -6 21 -15 7z"/>
<path d="M2015 1575 c22 -8 51 -14 65 -14 14 0 4 6 -25 14 -63 18 -93 17 -40
0z"/>
<path d="M3347 1583 c-3 -5 -8 -30 -12 -56 l-7 -48 38 22 c74 41 79 51 34 74
-32 17 -47 19 -53 8z"/>
<path d="M955 1561 c-4 -13 0 -30 10 -43 16 -22 16 -22 9 17 -8 49 -10 52 -19
26z"/>
<path d="M3014 1557 c3 -10 6 -25 6 -33 0 -9 5 -12 10 -9 14 9 13 18 -6 41
-14 17 -15 17 -10 1z"/>
<path d="M20 1543 c1 -13 29 -59 30 -48 0 21 -13 55 -21 55 -5 0 -9 -3 -9 -7z"/>
<path d="M761 1504 c0 -11 3 -14 6 -6 3 7 2 16 -1 19 -3 4 -6 -2 -5 -13z"/>
<path d="M3648 1430 c17 -54 23 -57 72 -36 l33 13 -54 37 c-29 20 -57 36 -60
36 -4 0 0 -22 9 -50z"/>
<path d="M3081 1334 c-12 -15 -21 -32 -21 -39 0 -7 -11 -24 -25 -39 -14 -15
-25 -39 -25 -54 l1 -27 24 30 c14 16 44 39 67 50 46 22 58 48 38 84 -15 28
-34 26 -59 -5z"/>
<path d="M3402 1318 c-26 -24 -56 -48 -67 -54 -11 -6 -20 -20 -20 -30 0 -15 7
-19 35 -17 19 1 50 5 68 8 51 11 82 -15 82 -68 0 -36 -6 -49 -34 -76 -21 -21
-54 -39 -83 -46 l-48 -12 2 -69 c1 -38 2 -75 3 -81 0 -16 57 -46 71 -38 5 4 8
3 7 -2 -1 -4 13 -24 31 -43 65 -67 78 -151 40 -240 -23 -54 -37 -63 -85 -54
-47 9 -59 28 -61 98 -1 34 -2 64 -2 68 -1 4 -12 15 -27 24 -38 25 -49 7 -30
-50 9 -26 16 -50 16 -54 0 -5 -16 -34 -35 -66 -27 -45 -35 -69 -35 -106 0 -34
-5 -52 -20 -65 -23 -20 -85 -24 -118 -6 -19 10 -57 75 -54 93 1 3 -6 12 -15
20 -12 9 -15 9 -9 1 5 -10 -7 -13 -50 -13 -65 0 -64 16 1 23 22 2 3 4 -42 5
-51 1 -83 6 -83 13 0 5 -4 7 -10 4 -5 -3 -10 -2 -10 3 0 15 -121 20 -148 6
-16 -8 -34 -9 -53 -4 -16 5 -41 6 -57 4 -15 -3 -46 -3 -70 1 -37 5 -40 8 -28
21 8 8 19 14 23 13 21 -4 33 2 27 13 -5 7 0 9 14 6 12 -4 20 -1 19 5 -1 5 9
14 23 18 22 8 21 8 -5 3 -16 -2 -51 -7 -78 -11 -39 -4 -45 -8 -36 -19 9 -11 7
-14 -10 -14 -13 0 -21 6 -21 18 0 13 -2 14 -9 3 -6 -9 -10 -10 -16 -2 -4 7 -1
18 5 26 10 12 10 15 -1 15 -18 0 -49 -20 -31 -20 21 0 13 -26 -11 -37 -16 -7
-29 -8 -41 -1 -11 6 -27 6 -44 0 -15 -6 -34 -10 -42 -10 -8 0 -28 -2 -45 -6
-16 -3 -43 -8 -59 -11 -16 -4 -34 -9 -39 -12 -6 -3 -7 -1 -3 5 4 7 14 12 22
12 8 0 12 4 9 10 -3 6 -15 10 -26 10 -11 0 -17 -5 -14 -10 3 -6 -4 -10 -17
-11 -16 0 -19 -2 -8 -7 8 -4 15 -16 15 -27 0 -18 6 -20 57 -19 31 0 55 -3 52
-8 -5 -8 16 -12 48 -10 9 1 19 -5 22 -13 4 -10 -2 -15 -17 -15 -12 0 -42 -3
-65 -6 -27 -4 -48 -2 -55 5 -15 15 -30 14 -53 -5 -10 -8 -14 -13 -9 -11 6 3
19 -1 30 -10 19 -13 17 -14 -17 -8 -27 5 -38 4 -38 -5 0 -9 20 -10 78 -5 55 4
73 3 62 -4 -12 -9 -11 -11 8 -11 12 0 22 4 22 10 0 11 361 7 420 -5 19 -3 45
-8 57 -11 13 -2 22 -10 20 -16 -1 -7 14 -13 37 -15 22 -2 44 -7 50 -12 6 -5
26 -12 44 -16 18 -3 45 -13 60 -20 15 -8 42 -15 60 -17 18 -1 32 -6 32 -10 0
-10 30 -11 31 0 8 79 13 99 26 112 9 8 13 9 9 3 -5 -9 0 -13 13 -13 13 0 26
-12 36 -30 22 -43 42 -50 121 -42 l69 7 6 44 c6 50 36 81 76 81 34 0 63 17 99
58 28 33 36 36 95 40 59 4 68 1 96 -22 36 -30 47 -64 34 -99 -9 -24 -33 -36
-103 -51 -17 -4 -34 -18 -42 -35 l-15 -28 85 -6 c58 -3 99 0 131 9 64 19 111
5 120 -37 4 -22 11 -29 29 -29 13 0 25 1 27 3 1 1 13 -8 27 -20 13 -13 28 -23
33 -23 16 0 74 66 74 84 0 21 -16 20 -71 -4 -45 -19 -47 -19 -79 -1 -27 15
-32 24 -33 57 -1 21 -2 44 -3 50 0 6 -15 17 -32 24 -17 7 -37 24 -46 36 -18
28 -8 65 32 118 14 19 34 58 45 87 20 58 14 73 -24 59 -16 -5 -22 -17 -24 -52
-4 -55 -33 -87 -91 -98 -75 -14 -123 27 -141 118 -5 26 -16 64 -24 84 -9 21
-16 50 -16 66 0 26 -5 31 -42 40 -23 6 -45 9 -49 6 -11 -7 -39 50 -39 80 0 29
19 50 69 75 24 13 46 36 63 68 31 56 60 85 106 103 38 15 40 37 9 95 -21 38
-24 39 -64 37 -37 -3 -47 1 -79 32 -21 20 -43 36 -51 36 -8 0 -35 -19 -61 -42z
m-1091 -844 c18 3 27 0 23 -6 -4 -5 -23 -8 -43 -6 -20 3 -51 1 -69 -3 -27 -6
-31 -5 -21 7 6 7 9 21 5 29 -4 12 3 11 35 -5 25 -13 52 -19 70 -16z m124 16
c-3 -5 -13 -10 -21 -10 -8 0 -14 5 -14 10 0 6 9 10 21 10 11 0 17 -4 14 -10z
m328 -7 c-7 -2 -19 -2 -25 0 -7 3 -2 5 12 5 14 0 19 -2 13 -5z m-70 -10 c-7
-2 -19 -2 -25 0 -7 3 -2 5 12 5 14 0 19 -2 13 -5z m121 -2 c3 -5 -1 -12 -10
-15 -8 -3 -13 -2 -9 3 3 5 -1 12 -7 14 -8 4 -7 6 4 6 9 1 19 -3 22 -8z m193
-70 l2 -30 -60 5 c-41 3 -59 2 -54 -5 3 -6 0 -8 -9 -5 -8 3 -17 11 -19 18 -6
15 84 17 94 3 4 -5 9 -5 13 1 3 6 -8 15 -24 21 -18 6 -28 6 -25 1 8 -13 -14
-12 -49 3 -27 12 -22 13 50 15 l79 2 2 -29z m-707 -1 c13 -9 13 -10 0 -10 -8
0 -22 5 -30 10 -13 9 -13 10 0 10 8 0 22 -5 30 -10z m547 -6 c-3 -3 -12 -4
-19 -1 -8 3 -5 6 6 6 11 1 17 -2 13 -5z"/>
<path d="M4355 1294 c-20 -9 -47 -12 -81 -8 -46 4 -55 2 -85 -23 -26 -22 -44
-28 -83 -29 -80 -2 -146 -24 -157 -52 -14 -36 -11 -88 8 -127 15 -31 15 -40 4
-72 -8 -22 -14 -85 -15 -150 l-1 -113 47 0 48 0 0 43 c0 23 5 60 10 82 5 24 5
56 0 80 -7 33 -5 46 12 75 l20 35 -30 25 c-42 35 -49 69 -21 104 24 31 75 56
111 56 34 0 119 -43 148 -74 32 -34 72 -56 104 -56 30 0 66 35 66 65 0 49 -48
157 -69 154 -3 0 -19 -7 -36 -15z"/>
<path d="M0 1266 c0 -20 6 -36 14 -39 19 -8 56 -126 57 -186 l2 -46 7 58 c8
60 20 88 20 46 0 -13 2 -58 5 -98 2 -41 0 -94 -4 -117 -11 -57 12 -70 28 -16
l11 37 -5 -38 c-4 -41 17 -49 23 -9 2 12 7 22 11 22 5 0 11 23 15 50 4 32 11
48 17 44 8 -4 8 -1 0 13 -7 14 -7 23 1 31 8 8 8 15 0 25 -7 8 -13 27 -15 43
-5 42 -21 67 -61 95 -19 13 -37 32 -39 41 -3 10 -16 22 -29 27 -12 6 -19 10
-14 10 11 1 -24 41 -36 41 -4 0 -8 -15 -8 -34z m74 -131 c7 -45 2 -38 -13 19
-6 22 -6 35 -1 30 4 -5 11 -27 14 -49z m80 9 c9 -8 16 -23 15 -32 0 -12 -3
-11 -9 6 -5 12 -14 22 -20 22 -5 0 -10 5 -10 10 0 14 6 13 24 -6z m13 -146
c-3 -8 -6 -5 -6 6 -1 11 2 17 5 13 3 -3 4 -12 1 -19z m-5 -88 c-7 -19 -10 -21
-15 -7 -4 10 -2 17 3 17 6 0 10 8 11 18 0 9 3 12 5 6 3 -6 1 -21 -4 -34z"/>
<path d="M3765 1076 c-8 -19 -27 -45 -43 -58 -24 -19 -102 -143 -102 -162 0
-3 15 -13 33 -22 17 -9 44 -28 59 -42 27 -25 28 -25 48 -7 18 16 20 29 17 119
-2 91 0 104 21 133 26 37 28 59 6 67 -23 9 -24 9 -39 -28z"/>
<path d="M3170 1092 c-8 -3 -30 -18 -48 -34 -25 -21 -42 -28 -68 -26 -20 1
-38 8 -42 14 -4 7 -30 14 -57 17 l-50 3 53 2 c28 1 52 7 52 12 0 6 -103 10
-292 9 -326 -2 -726 -13 -633 -19 81 -4 83 -4 90 -11 3 -4 -26 -10 -66 -13
-124 -13 -66 -23 141 -27 103 -1 134 -4 105 -10 -28 -5 -15 -6 40 -3 101 6
209 6 258 0 20 -2 37 0 37 4 0 5 40 8 89 8 84 0 90 -1 94 -21 4 -18 5 -18 6 5
1 21 5 25 21 21 11 -3 17 -10 13 -17 -5 -8 -3 -8 8 0 25 20 81 23 100 5 36
-34 57 -95 63 -184 7 -99 0 -120 -44 -135 -26 -10 -33 -21 -29 -48 0 -4 -5
-11 -13 -15 -10 -7 -8 -9 7 -9 20 -1 20 -1 1 -15 -18 -14 -18 -15 -2 -15 9 0
15 -4 12 -8 -2 -4 4 -19 14 -32 18 -24 18 -24 40 -5 28 26 46 60 54 109 6 32
13 41 47 55 21 9 39 20 39 25 0 5 -12 33 -26 63 -19 39 -25 63 -21 88 9 53 37
104 68 122 35 21 36 33 7 60 -28 24 -48 32 -68 25z m-914 -29 c-10 -10 -46
-11 -46 -1 0 4 12 8 27 8 14 0 23 -3 19 -7z"/>
<path d="M1022 1073 c48 -2 129 -2 180 0 51 1 12 3 -87 3 -99 0 -141 -2 -93
-3z"/>
<path d="M660 1049 c0 -6 -6 -9 -12 -6 -7 2 -22 1 -33 -4 -18 -7 -17 -8 7 -8
15 -1 38 3 53 9 14 5 24 6 21 1 -12 -19 59 -30 162 -27 59 2 154 5 212 6 79 1
98 4 75 11 -16 4 -39 6 -52 3 -14 -4 -23 -2 -23 5 0 9 29 11 105 8 58 -3 107
-1 110 3 3 4 -47 8 -110 9 -74 1 -115 -2 -115 -9 0 -5 -10 -10 -22 -9 -22 0
-22 1 -3 9 12 5 -38 9 -133 9 -100 1 -151 -2 -147 -9 3 -5 -1 -10 -10 -10 -9
0 -14 4 -11 8 3 5 -13 9 -34 10 -23 1 -40 -3 -40 -9z m168 -6 c-10 -2 -28 -2
-40 0 -13 2 -5 4 17 4 22 1 32 -1 23 -4z m125 0 c-18 -2 -48 -2 -65 0 -18 2
-4 4 32 4 36 0 50 -2 33 -4z"/>
<path d="M2048 1053 c12 -2 30 -2 40 0 9 3 -1 5 -23 4 -22 0 -30 -2 -17 -4z"/>
<path d="M92 960 c0 -14 2 -19 5 -12 2 6 2 18 0 25 -3 6 -5 1 -5 -13z"/>
<path d="M415 780 c3 -5 11 -10 16 -10 6 0 7 5 4 10 -3 6 -11 10 -16 10 -6 0
-7 -4 -4 -10z"/>
<path d="M2090 755 c7 -8 20 -14 29 -14 13 1 13 2 -1 6 -10 2 -18 9 -18 14 0
5 -5 9 -11 9 -8 0 -8 -5 1 -15z"/>
<path d="M2 738 c3 -7 21 -13 46 -13 46 0 57 -7 48 -30 -4 -13 -10 -14 -26 -5
-14 8 -20 8 -20 0 0 -7 -6 -8 -19 0 -11 5 -21 10 -24 10 -2 0 -5 -28 -6 -61
-2 -52 0 -61 13 -56 20 8 21 -7 2 -22 -17 -14 -22 -151 -5 -151 6 0 9 7 5 15
-8 22 7 18 22 -6 10 -16 10 -20 0 -18 -27 3 -38 -1 -38 -16 0 -8 5 -15 10 -15
6 0 10 5 10 10 0 6 20 10 45 10 36 0 45 -3 44 -17 0 -11 -3 -13 -6 -5 -2 6
-11 12 -19 12 -8 0 -14 -6 -15 -12 0 -7 -2 -21 -4 -30 -2 -11 3 -18 13 -19 11
0 12 -2 4 -6 -6 -2 -10 -9 -7 -13 3 -5 -9 -5 -27 1 -18 5 -36 9 -39 9 -5 0 -5
-106 0 -120 1 -3 8 4 16 14 15 19 15 19 15 -3 0 -20 5 -22 38 -21 20 1 46 1
57 1 19 -1 18 -3 -5 -21 -14 -11 -23 -20 -20 -21 3 0 16 -2 30 -5 14 -2 31 -6
38 -9 17 -6 15 -35 -3 -35 -8 0 -15 5 -15 10 0 6 -4 10 -10 10 -5 0 -10 -6
-10 -12 0 -19 -49 -38 -97 -38 -44 0 -51 -8 -37 -44 9 -23 132 -23 149 1 9 13
14 13 20 3 5 -9 4 -11 -3 -6 -7 4 -12 3 -12 -3 0 -14 269 -14 287 0 8 7 46 12
91 13 54 0 67 2 44 7 -18 4 -35 9 -38 11 -2 3 24 14 58 25 45 15 78 19 116 16
28 -3 52 -8 52 -10 0 -2 -7 -12 -16 -20 -15 -15 -14 -17 8 -30 22 -13 21 -13
-13 -7 -22 3 -39 1 -44 -5 -4 -8 247 -10 917 -8 508 2 928 4 933 4 6 1 108 -1
228 -4 l217 -4 0 30 c0 23 -5 31 -17 31 -10 0 -25 5 -33 10 -12 7 -10 11 10
19 19 9 7 10 -55 7 -59 -3 -85 -1 -99 10 -20 14 -20 14 0 14 10 0 24 4 31 8
10 6 -72 7 -87 1 -3 -1 -30 -3 -60 -5 -30 -1 -88 -6 -128 -11 -39 -5 -78 -6
-85 -1 -13 8 7 12 56 8 15 -1 27 3 27 9 0 5 9 13 21 16 20 7 20 8 -6 21 -35
18 -49 18 -42 0 4 -11 -3 -14 -26 -14 -18 0 -55 -5 -84 -12 -38 -9 -60 -10
-83 -2 -18 7 -28 7 -25 2 4 -6 -13 -10 -39 -10 -59 0 -72 20 -14 21 l43 1 -45
10 c-25 6 -58 10 -74 9 -17 0 -37 5 -45 12 -9 8 -29 14 -44 15 -16 1 -34 5
-40 9 -11 7 -69 12 -146 14 -16 1 -20 4 -11 9 24 15 1 29 -33 19 -41 -12 -40
-12 -34 6 6 14 -50 51 -61 40 -3 -3 0 -5 7 -5 7 0 11 -13 9 -34 -1 -19 -6 -32
-10 -30 -5 3 -6 9 -3 14 3 5 1 11 -5 15 -5 3 -10 2 -10 -4 0 -6 -12 -6 -35 0
-19 6 -39 8 -44 5 -5 -3 -11 3 -14 14 -3 12 -14 20 -25 20 -11 0 -30 12 -42
28 -12 15 -19 21 -15 15 4 -9 -3 -13 -22 -13 -22 0 -25 2 -13 10 13 8 12 10
-4 10 -20 0 -20 0 0 15 18 14 18 14 -6 15 -14 0 -39 9 -57 19 -17 11 -40 17
-51 14 -11 -2 -23 0 -27 7 -5 8 8 10 42 9 26 -1 53 -5 58 -8 6 -3 21 -7 34 -9
13 -2 33 -9 45 -16 11 -8 35 -17 51 -20 l30 -7 -24 19 c-13 11 -33 18 -45 15
-18 -3 -18 -2 2 7 33 14 18 30 -18 20 -19 -5 -28 -5 -25 1 4 5 -1 12 -9 15 -9
3 -14 9 -12 13 2 3 -20 8 -50 9 -30 2 -74 12 -97 23 -23 10 -33 17 -22 15 11
-3 34 1 50 8 l30 14 -25 10 c-28 11 -44 6 -34 -10 5 -7 -1 -9 -17 -5 -31 8
-52 -5 -47 -29 2 -12 13 -20 31 -22 15 -2 27 -7 27 -12 0 -5 3 -15 6 -23 4
-12 0 -14 -17 -10 -13 4 -18 8 -11 11 22 7 12 20 -20 25 -41 6 -62 -5 -28 -14
25 -7 25 -7 2 -8 -33 -1 -23 -22 19 -37 l34 -13 -35 1 c-19 0 -48 -2 -65 -5
-16 -2 -23 -2 -15 0 23 8 40 24 35 34 -3 4 -12 6 -19 3 -8 -3 -28 2 -45 10
-18 10 -43 14 -62 11 -27 -5 -30 -3 -24 15 9 29 -2 41 -28 31 -12 -5 -33 -4
-46 1 -17 6 -34 4 -56 -6 -17 -8 -44 -13 -61 -11 -16 2 -33 4 -39 4 -5 1 -3 6
5 11 8 5 11 10 5 10 -5 0 -16 -4 -24 -9 -11 -7 -9 -13 9 -31 12 -12 20 -24 17
-26 -3 -3 -15 8 -27 23 -12 15 -32 29 -43 30 -40 5 -128 4 -136 -1 -4 -3 -8 1
-8 8 0 8 18 14 51 15 28 1 78 6 111 10 l60 8 -50 3 c-27 1 -80 1 -117 0 -63
-2 -66 -1 -61 19 6 23 8 24 38 12 11 -5 25 -4 33 1 9 8 12 5 12 -8 0 -13 3
-15 8 -7 5 8 41 11 122 8 97 -3 116 -1 128 13 7 10 11 11 7 5 -3 -7 -1 -13 4
-13 6 0 11 6 11 13 0 9 2 9 9 -1 4 -7 12 -12 17 -11 5 1 23 -3 39 -10 17 -6
37 -14 45 -17 12 -4 9 -9 -10 -24 l-25 -19 34 -14 c19 -8 41 -13 48 -10 8 3
13 0 11 -8 -2 -8 7 -15 20 -17 12 -2 22 1 22 7 0 6 -8 11 -17 12 -15 0 -14 3
5 16 12 8 22 20 22 26 0 6 -3 7 -6 4 -4 -3 -16 -1 -28 5 -11 7 -24 11 -28 10
-4 -1 -5 4 -2 11 3 8 -7 19 -22 26 -15 6 -24 15 -20 18 3 4 12 1 18 -5 17 -17
55 -15 55 3 0 8 -4 12 -8 10 -3 -3 -27 1 -52 9 -31 9 -49 10 -55 4 -6 -6 -31
-10 -56 -10 -25 1 -48 -3 -51 -8 -3 -5 -20 -7 -38 -3 -57 10 -57 18 -1 19 41
1 58 6 69 20 11 13 14 14 13 4 -4 -19 42 -26 53 -8 16 24 10 27 -48 22 -31 -2
-59 -1 -62 3 -3 5 -26 5 -51 2 -25 -3 -34 -7 -20 -8 l25 -2 -25 -14 c-30 -17
-93 -19 -122 -4 -16 8 -19 8 -13 -1 6 -10 -5 -11 -45 -7 -58 6 -81 1 -74 -17
3 -7 -7 -18 -20 -26 -20 -10 -24 -18 -20 -37 4 -13 2 -23 -2 -22 -18 3 -34 -1
-33 -8 1 -5 1 -15 0 -23 -1 -13 -2 -13 -11 0 -8 12 -10 12 -10 1 0 -8 -3 -12
-6 -9 -3 4 0 16 6 29 11 19 10 21 -4 16 -11 -4 -15 -3 -11 4 4 6 13 8 21 5 9
-4 22 7 34 27 11 17 23 31 27 30 5 -1 10 1 12 3 2 2 -1 4 -7 4 -6 0 -9 7 -6
15 5 11 2 13 -10 9 -21 -8 -17 18 4 28 8 4 -6 7 -32 6 -27 -1 -53 3 -58 8 -7
7 -1 9 20 6 18 -3 30 0 30 7 0 6 -6 11 -12 12 -64 4 -81 3 -85 -4 -3 -4 -11
-3 -18 3 -8 6 -19 10 -27 9 -30 -4 -43 2 -23 11 27 11 -183 12 -221 0 -26 -7
-24 -9 21 -11 28 -1 61 -2 75 -1 17 1 21 -1 12 -7 -11 -7 -11 -9 2 -14 8 -3
18 -2 22 4 4 7 10 6 19 -1 10 -8 13 -7 11 7 0 10 7 19 18 21 11 2 16 0 12 -7
-4 -6 0 -11 9 -11 9 0 13 -5 10 -10 -4 -6 -11 -8 -16 -5 -5 4 -9 2 -9 -4 0 -6
-16 -9 -37 -6 -21 2 -67 7 -103 10 -36 3 -80 8 -98 10 -18 2 -30 0 -27 -5 3
-5 0 -12 -6 -16 -9 -5 -10 0 -7 14 4 15 0 25 -10 32 -10 5 -12 10 -5 10 6 0
15 -4 18 -10 3 -5 17 -10 30 -10 18 0 23 4 19 15 -4 8 -16 15 -28 15 -11 0
-28 5 -36 11 -12 8 -9 10 12 6 15 -2 25 0 22 4 -3 5 -14 9 -25 9 -10 0 -19 3
-19 8 0 4 -25 8 -56 10 -42 2 -55 0 -52 -10z m536 -130 c-8 -4 -14 -2 -16 6
-2 8 -14 17 -28 20 -13 4 -24 11 -24 17 0 6 18 0 40 -12 28 -16 36 -25 28 -31z
m-98 14 c0 -4 -10 -9 -22 -9 -13 -1 -24 -7 -26 -13 -2 -5 -8 -8 -13 -4 -16 9
-10 22 14 27 38 7 47 7 47 -1z m44 -14 c-7 -11 -34 -10 -34 1 0 6 9 9 19 8 11
0 17 -5 15 -9z m129 -5 c-7 -2 -19 -2 -25 0 -7 3 -2 5 12 5 14 0 19 -2 13 -5z
m-468 -31 c-3 -3 -11 0 -18 7 -9 10 -8 11 6 5 10 -3 15 -9 12 -12z m225 9 c0
-6 19 -12 43 -14 40 -3 39 -4 -11 -5 -40 -2 -51 1 -46 11 6 10 4 10 -7 0 -16
-15 -39 -17 -39 -3 0 5 7 6 17 3 11 -4 14 -3 9 5 -5 8 0 12 13 12 12 0 21 -4
21 -9z m200 5 c0 -2 -7 -7 -16 -10 -8 -3 -12 -2 -9 4 6 10 25 14 25 6z m255
-6 c4 -6 -6 -10 -22 -9 -25 0 -26 1 -8 9 11 5 21 9 22 9 1 1 5 -3 8 -9z m-748
-21 c-6 -10 -13 -16 -15 -14 -3 2 -12 -4 -21 -13 -9 -10 -12 -12 -7 -5 5 8 4
13 -2 13 -17 0 -3 28 16 32 36 8 41 6 29 -13z m453 9 c0 -4 6 -8 14 -8 8 0 17
-7 20 -16 5 -13 3 -14 -7 -6 -12 10 -73 9 -144 -3 -18 -3 -33 -2 -33 2 0 4 21
9 46 11 26 2 52 9 59 16 15 14 45 17 45 4z m400 2 c12 -8 9 -10 -12 -10 -15 0
-30 5 -33 10 -8 13 25 13 45 0z m-690 -10 c-19 -13 -30 -13 -30 0 0 6 10 10
23 10 18 0 19 -2 7 -10z m390 -4 c0 -2 -6 -9 -13 -15 -10 -8 -14 -7 -14 4 0 8
6 15 14 15 7 0 13 -2 13 -4z m517 -2 c-3 -3 -12 -4 -19 -1 -8 3 -5 6 6 6 11 1
17 -2 13 -5z m-841 -40 c53 -7 56 -14 5 -12 -23 1 -44 5 -47 10 -9 13 -24 9
-24 -7 0 -8 3 -14 8 -14 4 1 9 0 12 -1 9 -3 44 -10 62 -12 9 -1 15 -6 12 -10
-3 -4 -12 -4 -22 -1 -14 5 -13 3 2 -9 19 -15 19 -16 -1 -22 -12 -4 -25 -6 -29
-5 -19 3 -34 -2 -34 -11 0 -5 13 -10 29 -10 17 0 33 -5 37 -11 5 -8 -2 -10
-22 -6 -27 5 -28 4 -9 -10 14 -10 33 -13 67 -9 31 4 49 3 54 -5 5 -8 -1 -10
-19 -7 -18 3 -28 0 -32 -11 -3 -8 -1 -17 4 -19 19 -6 12 -22 -10 -22 -16 0
-20 5 -16 20 4 17 0 20 -26 20 -21 0 -27 3 -19 8 8 6 3 9 -16 9 -16 0 -38 9
-51 22 -12 12 -27 19 -34 16 -7 -4 -4 0 5 8 10 8 15 17 11 20 -3 4 -1 7 6 7 7
0 9 5 6 10 -4 6 -11 7 -17 4 -7 -5 -9 -1 -5 9 10 25 -25 31 -45 8 -21 -26 -32
-27 -18 -2 7 14 7 22 0 26 -13 8 -42 -14 -34 -26 7 -12 -25 -10 -51 2 -19 9
-18 9 3 5 13 -2 27 3 35 12 6 10 21 19 32 20 11 2 26 9 33 14 9 8 12 5 13 -8
0 -11 3 -14 5 -8 3 6 16 9 29 6 21 -4 58 17 52 29 -1 3 3 -2 10 -9 6 -7 28
-15 49 -18z m168 -13 c4 -5 -3 -7 -14 -4 -23 6 -26 13 -6 13 8 0 17 -4 20 -9z
m21 -51 c14 0 25 -5 25 -11 0 -6 -7 -8 -16 -5 -9 3 -41 6 -72 6 -35 0 -52 4
-44 9 11 6 10 10 -5 16 -17 7 -17 8 2 15 13 4 32 0 53 -12 18 -10 44 -18 57
-18z m-120 -16 c13 -5 14 -8 3 -15 -19 -12 -25 -11 -25 6 0 17 0 17 22 9z
m201 -16 c0 -13 -6 -23 -13 -23 -6 0 -15 -3 -19 -7 -14 -15 -25 -8 -12 7 7 8
19 21 26 30 17 20 19 19 18 -7z m442 13 c8 -4 13 -10 13 -12 -2 -12 12 -48 18
-45 3 2 15 0 26 -5 15 -7 12 -8 -15 -6 -20 1 -35 7 -35 14 0 7 -8 22 -17 33
-26 30 -20 41 10 21z m77 -1 c3 -5 -1 -10 -10 -10 -9 0 -13 5 -10 10 3 6 8 10
10 10 2 0 7 -4 10 -10z m-1010 -28 c-3 -3 -11 0 -18 7 -9 10 -8 11 6 5 10 -3
15 -9 12 -12z m71 -10 c10 -15 8 -18 -7 -19 -10 -1 -21 2 -24 8 -4 5 -1 9 5 9
6 0 8 5 5 10 -3 6 -2 10 2 10 5 0 13 -8 19 -18z m465 -23 c-5 -13 -10 -19 -10
-12 -1 15 10 45 15 40 3 -2 0 -15 -5 -28z m151 9 c46 -10 50 -12 28 -19 -37
-10 -52 -10 -45 1 3 5 0 7 -8 4 -8 -3 -18 0 -22 5 -3 6 -11 9 -16 6 -5 -4 -9
-1 -9 4 0 14 7 14 72 -1z m715 -24 c25 -12 31 -19 21 -25 -11 -7 -11 -9 0 -9
7 0 10 -4 7 -10 -4 -6 -11 -5 -19 3 -10 9 -11 14 -2 19 6 4 7 8 1 8 -13 0 -37
-16 -36 -24 4 -28 -2 -36 -24 -36 -14 0 -28 6 -31 14 -3 8 -12 17 -20 20 -12
4 -14 1 -9 -14 5 -14 2 -20 -10 -20 -12 0 -15 6 -10 20 4 12 1 27 -5 35 -13
15 -12 16 42 19 9 1 20 4 24 9 12 11 33 8 71 -9z m-1027 -5 c0 -8 6 -7 17 2
15 13 15 12 4 -9 -7 -13 -14 -22 -15 -20 -1 1 -8 11 -15 21 -9 11 -10 17 -2
17 6 0 11 -5 11 -11z m434 5 c29 -11 17 -20 -21 -16 -31 4 -34 6 -18 13 11 4
21 8 22 8 1 1 8 -2 17 -5z m56 -14 c0 -5 -7 -7 -15 -4 -8 4 -12 10 -9 15 6 11
24 2 24 -11z m121 0 c21 0 40 -4 43 -8 2 -4 -24 -8 -58 -7 -57 0 -62 2 -52 17
7 11 14 14 20 8 6 -6 27 -10 47 -10z m-974 4 c-3 -3 -12 -4 -19 -1 -8 3 -5 6
6 6 11 1 17 -2 13 -5z m128 -5 c25 -7 22 -8 -17 -5 -33 2 -48 -1 -52 -10 -3
-9 2 -14 14 -14 11 0 20 -7 20 -16 0 -9 5 -12 12 -8 7 5 9 2 6 -8 -4 -8 0 -15
8 -15 7 0 10 5 7 10 -3 6 -1 7 5 3 15 -9 11 -46 -6 -46 -22 0 -4 -17 23 -22
27 -6 32 1 13 20 -15 15 9 17 32 2 13 -9 13 -10 0 -10 -12 -1 -12 -3 2 -14 10
-7 14 -17 10 -21 -4 -5 0 -4 8 0 17 11 79 7 100 -6 11 -6 5 -9 -20 -10 -19 -2
-51 -3 -70 -4 -19 -2 -44 -6 -56 -10 -17 -5 -21 -2 -20 16 1 14 -6 23 -19 25
-11 1 -39 6 -62 9 -37 5 -42 9 -39 28 2 12 9 21 15 20 15 -4 13 8 -3 29 -7 10
-16 15 -19 11 -4 -3 -7 -1 -7 5 0 6 9 14 20 17 11 3 20 13 20 21 0 15 27 17
75 3z m942 0 c-11 -7 -23 -7 -28 -2 -5 5 3 9 19 11 24 1 25 0 9 -9z m107 2 c3
-5 -3 -11 -13 -14 -12 -3 -22 1 -25 9 -6 16 29 20 38 5z m-977 -8 c-9 -2 -15
-8 -12 -13 3 -5 0 -12 -6 -16 -8 -4 -9 -3 -5 4 4 7 2 12 -3 12 -6 0 -11 5 -11
10 0 6 12 9 28 9 17 -1 20 -3 9 -6z m213 -4 c0 -5 5 -7 12 -3 7 4 8 3 4 -5 -4
-6 -11 -9 -16 -6 -5 3 -16 -8 -25 -25 -22 -43 -27 -37 -7 10 16 38 32 52 32
29z m103 -15 c-7 -18 -33 -18 -33 -1 0 19 10 27 25 20 8 -2 11 -11 8 -19z
m-363 -4 c0 -5 -2 -10 -4 -10 -3 0 -8 5 -11 10 -3 6 -1 10 4 10 6 0 11 -4 11
-10z m850 -6 c0 -2 -7 -4 -15 -4 -8 0 -15 4 -15 10 0 5 7 7 15 4 8 -4 15 -8
15 -10z m476 -21 c-7 -7 -26 7 -26 19 0 6 6 6 15 -2 9 -7 13 -15 11 -17z
m-342 8 c3 -5 -15 -11 -40 -13 -42 -3 -61 2 -49 14 9 9 84 8 89 -1z m-1174
-11 c0 -5 -4 -10 -10 -10 -5 0 -10 5 -10 10 0 6 5 10 10 10 6 0 10 -4 10 -10z
m1323 -40 c9 0 17 4 17 10 0 5 -8 7 -17 4 -12 -4 -14 -3 -6 3 25 18 153 -1
153 -22 0 -8 6 -16 13 -18 6 -3 -2 -6 -18 -6 -17 -1 -35 -5 -40 -10 -6 -5 -27
-12 -49 -15 -29 -5 -37 -3 -33 7 3 8 -4 14 -17 15 -13 1 -36 8 -52 17 -29 15
-29 15 -4 15 l25 1 -28 15 c-15 8 -25 20 -21 25 4 7 17 0 33 -15 15 -14 35
-26 44 -26z m224 35 c0 -8 -4 -12 -9 -9 -4 3 -8 9 -8 15 0 5 4 9 8 9 5 0 9 -7
9 -15z m-1267 -28 c0 -5 -4 -5 -10 -2 -5 3 -10 -2 -11 -12 0 -14 -3 -12 -10 6
-7 18 -6 27 3 32 12 8 28 -6 28 -24z m90 18 c-7 -9 -15 -13 -19 -10 -3 3 1 10
9 15 21 14 24 12 10 -5z m170 11 c0 -3 -4 -8 -10 -11 -5 -3 -10 -1 -10 4 0 6
5 11 10 11 6 0 10 -2 10 -4z m-222 -24 c2 -7 -2 -10 -12 -6 -9 3 -16 11 -16
16 0 13 23 5 28 -10z m212 -28 c0 -20 -7 -17 -20 6 -9 16 -8 18 5 14 8 -4 15
-12 15 -20z m-533 10 c-3 -3 -12 -4 -19 -1 -8 3 -5 6 6 6 11 1 17 -2 13 -5z
m1562 -13 c41 -14 61 -17 80 -9 14 5 42 6 61 3 53 -11 128 -15 106 -6 -18 7
-18 8 -3 14 9 3 17 2 17 -3 0 -6 8 -10 18 -10 15 0 15 -2 2 -11 -12 -8 -12 -9
5 -8 11 2 30 -1 42 -5 13 -4 54 -9 92 -10 78 -4 132 -24 71 -27 -19 -1 -41 -1
-49 0 -7 2 -10 -2 -6 -8 8 -14 -27 -15 -41 -2 -5 5 -28 16 -52 24 -32 11 -40
12 -32 2 8 -10 4 -14 -17 -16 -38 -5 -74 1 -68 11 3 4 15 6 28 3 15 -4 19 -2
12 5 -12 12 -105 22 -105 11 0 -4 6 -10 13 -13 6 -3 -7 -4 -31 -2 -23 2 -40 0
-37 -4 3 -5 -3 -8 -14 -7 -11 1 -18 3 -16 6 6 5 -38 37 -47 34 -4 -2 -31 9
-60 22 -63 29 -46 32 31 6z m-1199 5 c0 -2 -7 -7 -16 -10 -8 -3 -12 -2 -9 4 6
10 25 14 25 6z m30 -10 c0 -2 -8 -10 -17 -17 -16 -13 -17 -12 -4 4 13 16 21
21 21 13z m296 -6 c5 -5 52 -10 103 -11 51 0 91 -2 89 -4 -2 -2 -45 -6 -96
-10 -63 -4 -92 -2 -92 5 0 6 -4 9 -9 6 -5 -3 -11 1 -15 9 -6 17 5 20 20 5z
m-652 -8 c2 -4 -6 -9 -20 -10 -13 -1 -24 3 -24 8 0 12 37 14 44 2z m1203 -8
c-3 -3 -12 -4 -19 -1 -8 3 -5 6 6 6 11 1 17 -2 13 -5z m-742 -14 c-28 -12 -37
-12 -30 0 3 6 16 10 28 9 21 0 21 -1 2 -9z m490 -10 c8 -13 -5 -13 -25 0 -13
8 -13 10 2 10 9 0 20 -4 23 -10z m-274 -15 c0 -5 -9 -11 -21 -13 -20 -3 -27 8
-13 22 10 9 34 3 34 -9z m-361 -5 c0 -5 -5 -10 -11 -10 -5 0 -7 5 -4 10 3 6 8
10 11 10 2 0 4 -4 4 -10z m-103 -16 c-3 -3 -12 -4 -19 -1 -8 3 -5 6 6 6 11 1
17 -2 13 -5z m83 -6 c11 3 9 -2 -5 -19 -11 -13 -22 -26 -24 -29 -2 -3 0 5 3
18 7 21 -1 27 -27 23 -5 -1 -6 3 -2 9 4 6 13 7 23 1 9 -4 24 -6 32 -3z m1138
1 c-2 -6 -8 -10 -13 -10 -5 0 -11 4 -13 10 -2 6 4 11 13 11 9 0 15 -5 13 -11z
m-583 -9 c-3 -5 -13 -10 -21 -10 -8 0 -12 5 -9 10 3 6 13 10 21 10 8 0 12 -4
9 -10z m1235 0 c12 -8 12 -10 -5 -10 -11 0 -27 5 -35 10 -12 8 -12 10 5 10 11
0 27 -5 35 -10z m-1913 -13 c9 0 9 -5 1 -21 -9 -17 -12 -18 -16 -6 -7 22 -25
30 -39 18 -8 -6 -13 -6 -13 -1 0 17 13 23 34 17 12 -4 26 -7 33 -7z m1059 2
c3 -6 2 -14 -2 -19 -12 -11 -57 7 -49 20 8 13 42 13 51 -1z m-736 -9 c0 -11
-48 -25 -57 -16 -4 3 2 6 13 6 16 0 17 2 4 10 -12 8 -9 10 13 10 15 0 27 -4
27 -10z m1380 2 c0 -5 -13 -7 -30 -4 -16 2 -30 6 -30 8 0 2 14 4 30 4 17 0 30
-4 30 -8z m-1640 -6 c0 -3 -4 -8 -10 -11 -5 -3 -10 -1 -10 4 0 6 5 11 10 11 6
0 10 -2 10 -4z m192 -29 c26 -2 11 -14 -17 -14 -13 0 -30 6 -37 15 -11 13 -10
14 12 8 14 -4 33 -8 42 -9z m553 -7 c-3 -5 -10 -10 -16 -10 -5 0 -9 5 -9 10 0
6 7 10 16 10 8 0 12 -4 9 -10z m101 -11 c8 -13 -13 -29 -40 -29 -18 0 -18 1
-1 20 21 23 31 25 41 9z m-1149 -21 c-3 -8 -6 -5 -6 6 -1 11 2 17 5 13 3 -3 4
-12 1 -19z m48 12 c3 -5 -1 -10 -10 -10 -9 0 -13 5 -10 10 3 6 8 10 10 10 2 0
7 -4 10 -10z m992 -26 c-3 -3 -12 -4 -19 -1 -8 3 -5 6 6 6 11 1 17 -2 13 -5z"/>
<path d="M230 450 c0 -5 7 -7 15 -4 8 4 15 8 15 10 0 2 -7 4 -15 4 -8 0 -15
-4 -15 -10z"/>
<path d="M1418 333 c7 -3 16 -2 19 1 4 3 -2 6 -13 5 -11 0 -14 -3 -6 -6z"/>
<path d="M1438 233 c7 -3 16 -2 19 1 4 3 -2 6 -13 5 -11 0 -14 -3 -6 -6z"/>
<path d="M1720 190 l-35 -7 43 -2 c27 0 41 3 37 9 -3 6 -7 9 -8 9 -1 -1 -18
-5 -37 -9z"/>
<path d="M4189 708 c-16 -12 -45 -21 -70 -23 -42 -2 -44 -4 -59 -48 -8 -25
-19 -49 -23 -53 -14 -14 -47 -96 -47 -116 0 -20 36 -39 58 -31 6 3 12 19 12
37 0 50 21 79 70 97 37 14 51 27 81 75 26 42 33 63 26 72 -12 16 -17 15 -48
-10z"/>
<path d="M1599 659 c-10 -6 -7 -9 14 -9 29 0 35 5 14 13 -8 3 -20 1 -28 -4z"/>
<path d="M1688 653 c12 -2 32 -2 45 0 12 2 2 4 -23 4 -25 0 -35 -2 -22 -4z"/>
<path d="M1798 653 c6 -2 18 -2 25 0 6 3 1 5 -13 5 -14 0 -19 -2 -12 -5z"/>
<path d="M2168 653 c7 -3 16 -2 19 1 4 3 -2 6 -13 5 -11 0 -14 -3 -6 -6z"/>
<path d="M2880 650 c8 -5 20 -10 25 -10 6 0 3 5 -5 10 -8 5 -19 10 -25 10 -5
0 -3 -5 5 -10z"/>
<path d="M2957 649 c7 -7 15 -10 18 -7 3 3 -2 9 -12 12 -14 6 -15 5 -6 -5z"/>
<path d="M725 630 c-7 -12 70 -12 100 -1 14 6 2 9 -37 10 -31 0 -60 -4 -63 -9z"/>
<path d="M855 630 c3 -5 16 -10 27 -10 26 0 16 13 -13 17 -12 2 -18 -1 -14 -7z"/>
<path d="M2566 633 c-12 -12 -5 -23 14 -23 11 0 20 4 20 9 0 11 -26 22 -34 14z"/>
<path d="M2619 629 c-10 -6 -4 -9 19 -9 17 0 32 2 32 4 0 9 -39 13 -51 5z"/>
<path d="M1140 620 c0 -5 6 -10 13 -11 6 0 26 -3 42 -5 l30 -4 -25 15 c-29 17
-60 19 -60 5z"/>
<path d="M1240 619 c0 -5 5 -7 10 -4 6 3 10 8 10 11 0 2 -4 4 -10 4 -5 0 -10
-5 -10 -11z"/>
<path d="M1715 620 c3 -5 14 -10 23 -10 15 0 15 2 2 10 -20 13 -33 13 -25 0z"/>
<path d="M2360 615 l-35 -14 52 2 c30 1 51 6 50 12 -5 15 -28 15 -67 0z"/>
<path d="M2795 610 c46 -22 55 -24 55 -10 0 6 -7 10 -15 10 -8 0 -15 4 -15 8
0 4 -15 9 -32 10 l-33 2 40 -20z"/>
<path d="M2528 613 c-10 -2 -18 -9 -18 -14 0 -14 16 -11 30 6 7 8 11 14 9 14
-2 -1 -12 -3 -21 -6z"/>
<path d="M1431 599 c-14 -5 -31 -7 -38 -4 -8 2 -11 0 -8 -5 3 -6 16 -10 28
-10 35 0 67 11 61 21 -6 11 -12 11 -43 -2z"/>
<path d="M1808 603 c7 -3 16 -2 19 1 4 3 -2 6 -13 5 -11 0 -14 -3 -6 -6z"/>
<path d="M1870 596 c7 -7 3 -16 -12 -28 l-23 -18 23 0 c12 0 25 7 29 16 3 9
15 19 27 23 17 7 15 9 -17 13 -25 3 -34 1 -27 -6z"/>
<path d="M1985 600 c-14 -6 -16 -9 -5 -11 8 -1 24 -3 35 -4 11 -2 29 -6 39
-11 14 -5 17 -4 11 5 -6 10 -2 11 15 6 16 -5 20 -4 15 5 -4 7 -20 10 -36 8
-16 -3 -29 -1 -29 4 0 10 -19 9 -45 -2z"/>
<path d="M2910 600 c0 -5 7 -10 16 -10 8 0 12 5 9 10 -3 6 -10 10 -16 10 -5 0
-9 -4 -9 -10z"/>
<path d="M1275 590 c-19 -8 -19 -9 2 -9 12 -1 25 4 28 9 7 12 -2 12 -30 0z"/>
<path d="M1345 570 c24 -16 43 -20 92 -18 61 3 75 9 52 24 -6 3 -16 1 -22 -5
-15 -15 -58 -14 -100 4 -50 21 -58 19 -22 -5z"/>
<path d="M2215 580 c-8 -13 15 -13 35 0 12 8 11 10 -7 10 -12 0 -25 -4 -28
-10z"/>
<path d="M2292 583 c-13 -3 -21 -10 -19 -16 4 -14 67 -28 67 -16 0 5 -15 9
-32 10 -30 0 -31 1 -10 9 12 5 22 12 22 15 0 3 -1 4 -2 4 -2 -1 -13 -4 -26 -6z"/>
<path d="M2160 570 c0 -5 7 -7 15 -4 8 4 15 8 15 10 0 2 -7 4 -15 4 -8 0 -15
-4 -15 -10z"/>
<path d="M2829 563 c31 -13 35 -13 50 3 14 16 14 17 0 6 -9 -6 -19 -9 -22 -5
-4 3 -19 7 -34 9 -27 2 -26 1 6 -13z"/>
<path d="M4369 565 c-15 -8 -34 -30 -43 -49 -9 -19 -40 -55 -68 -80 l-52 -45
29 -11 c15 -6 35 -8 44 -5 22 7 77 -10 97 -29 17 -18 42 -20 64 -6 12 7 15 32
15 115 0 83 -3 108 -15 115 -21 13 -40 12 -71 -5z"/>
<path d="M1275 560 c11 -5 31 -8 45 -8 l25 0 -25 8 c-14 4 -34 8 -45 8 l-20 1
20 -9z"/>
<path d="M2696 561 c-8 -12 38 -41 61 -40 12 1 10 3 -7 9 -21 7 -22 8 -5 10
62 5 85 20 34 21 -19 0 -44 2 -56 5 -12 2 -24 0 -27 -5z"/>
<path d="M1938 553 c7 -3 16 -2 19 1 4 3 -2 6 -13 5 -11 0 -14 -3 -6 -6z"/>
<path d="M1975 549 c-4 -6 -5 -13 -2 -16 7 -7 27 6 27 18 0 12 -17 12 -25 -2z"/>
<path d="M2170 545 c-10 -12 -9 -15 4 -15 10 0 15 4 11 9 -3 5 7 12 22 14 l28
4 -26 2 c-15 0 -32 -6 -39 -14z"/>
<path d="M2640 545 l35 -13 -35 -2 c-19 -1 -44 -5 -55 -9 -16 -7 44 -7 98 -2
18 2 4 20 -24 30 -45 16 -61 12 -19 -4z"/>
<path d="M2900 552 c0 -4 19 -9 42 -11 50 -3 48 4 -4 13 -21 4 -38 3 -38 -2z"/>
<path d="M1240 516 c0 -10 28 -13 41 -5 10 6 7 9 -13 9 -16 0 -28 -2 -28 -4z"/>
<path d="M2530 510 c0 -5 7 -10 15 -10 8 0 15 5 15 10 0 6 -7 10 -15 10 -8 0
-15 -4 -15 -10z"/>
<path d="M2880 500 c8 -5 22 -10 30 -10 13 0 13 1 0 10 -8 5 -22 10 -30 10
-13 0 -13 -1 0 -10z"/>
<path d="M1550 451 c0 -12 29 -23 42 -15 6 4 5 10 -3 15 -18 11 -39 11 -39 0z"/>
<path d="M1663 433 c-22 -8 -14 -30 13 -36 15 -3 40 1 57 8 l29 12 -28 7 c-16
4 -36 9 -44 11 -8 2 -21 1 -27 -2z"/>
<path d="M2135 430 c3 -5 15 -10 26 -10 11 0 17 5 14 10 -3 6 -15 10 -26 10
-11 0 -17 -4 -14 -10z"/>
<path d="M1827 424 c-4 -4 -4 -10 -2 -14 6 -9 54 0 61 11 6 10 -49 12 -59 3z"/>
<path d="M1871 401 c-10 -7 -7 -9 12 -8 14 1 23 5 20 10 -6 9 -15 9 -32 -2z"/>
<path d="M1970 401 c0 -8 -8 -10 -20 -6 -11 3 -20 2 -20 -3 0 -15 28 -22 51
-14 19 7 19 9 5 21 -12 10 -16 10 -16 2z"/>
<path d="M1721 386 c-24 -13 -24 -13 14 -20 73 -14 115 -17 115 -8 0 19 -30
34 -54 28 -14 -3 -28 -2 -31 4 -8 13 -15 12 -44 -4z"/>
<path d="M1890 360 c0 -6 7 -10 15 -10 8 0 15 2 15 4 0 2 -7 6 -15 10 -8 3
-15 1 -15 -4z"/>
<path d="M1623 339 c-1 -10 5 -19 13 -19 17 0 18 14 1 28 -10 8 -13 6 -14 -9z"/>
<path d="M1930 352 c0 -12 99 -32 106 -21 2 4 -12 11 -33 14 -21 4 -46 9 -55
12 -10 2 -18 0 -18 -5z"/>
<path d="M2330 341 c0 -5 7 -14 15 -21 12 -10 15 -9 15 5 0 13 3 15 13 7 7 -6
23 -8 36 -5 17 4 19 8 9 14 -17 11 -88 11 -88 0z"/>
<path d="M0 336 c0 -2 9 -6 20 -9 11 -3 20 -1 20 4 0 5 -9 9 -20 9 -11 0 -20
-2 -20 -4z"/>
<path d="M1690 329 c0 -5 5 -7 10 -4 6 3 10 8 10 11 0 2 -4 4 -10 4 -5 0 -10
-5 -10 -11z"/>
<path d="M2050 310 c0 -11 2 -20 5 -20 2 0 9 9 15 20 9 16 8 20 -5 20 -8 0
-15 -9 -15 -20z"/>
<path d="M2610 319 c0 -5 5 -7 10 -4 6 3 10 8 10 11 0 2 -4 4 -10 4 -5 0 -10
-5 -10 -11z"/>
<path d="M1745 310 c3 -5 8 -10 11 -10 2 0 4 5 4 10 0 6 -5 10 -11 10 -5 0 -7
-4 -4 -10z"/>
<path d="M2155 290 c19 -8 73 -14 64 -6 -2 2 -22 6 -44 9 -28 5 -34 4 -20 -3z"/>
<path d="M2247 288 c-7 -4 1 -8 17 -8 16 0 37 -6 45 -14 10 -8 29 -12 49 -9
32 5 41 16 22 28 -15 9 -120 11 -133 3z"/>
<path d="M2435 264 c11 -3 30 -7 42 -9 23 -5 25 -31 3 -45 -8 -5 3 -8 28 -7
22 0 39 5 36 9 -7 10 68 9 126 -2 115 -22 197 -43 215 -55 29 -18 113 -25 119
-9 7 17 -3 24 -34 24 -26 0 -106 23 -145 41 -11 5 -31 12 -45 14 -84 17 -161
28 -205 31 -27 2 -75 6 -105 8 -30 3 -46 3 -35 0z"/>
<path d="M3376 214 c-3 -8 -1 -24 4 -34 6 -10 10 -28 10 -39 0 -11 11 -32 24
-48 l24 -28 12 63 c7 34 17 65 21 68 5 3 9 12 9 20 0 21 -96 20 -104 -2z"/>
<path d="M4217 194 c-4 -4 -7 -16 -7 -26 0 -15 8 -18 51 -18 47 0 50 2 47 23
-2 18 -10 23 -43 25 -23 2 -44 0 -48 -4z"/>
<path d="M2330 180 c0 -5 9 -10 19 -10 11 0 23 5 26 10 4 6 -5 10 -19 10 -14
0 -26 -4 -26 -10z"/>
<path d="M2654 158 c1 -24 43 -35 43 -10 0 8 -7 12 -18 9 -12 -3 -16 0 -12 9
3 8 1 14 -5 14 -5 0 -9 -10 -8 -22z"/>
<path d="M13 143 c-7 -2 -13 -20 -13 -38 0 -28 3 -32 20 -28 15 4 18 9 10 18
-12 14 17 27 60 27 19 -1 20 1 6 5 -13 3 -15 7 -7 12 13 9 -57 12 -76 4z"/>
<path d="M3182 88 c-8 -8 -5 -18 13 -40 14 -16 25 -34 25 -39 0 -5 18 -9 40
-9 44 0 50 11 24 48 -14 21 -63 52 -82 52 -4 0 -13 -5 -20 -12z"/>
<path d="M3602 60 c-7 -11 -27 -29 -45 -40 l-32 -20 76 0 c80 0 89 5 89 50 0
34 -68 42 -88 10z"/>
<path d="M642 38 c6 -18 25 -21 31 -5 3 8 -3 13 -15 14 -10 1 -18 -3 -16 -9z"/>
</g>
</svg>
